<?xml version="1.0" encoding="UTF-8"?>
<!DOCTYPE svg PUBLIC "-//W3C//DTD SVG 1.1//EN" "http://www.w3.org/Graphics/SVG/1.1/DTD/svg11.dtd">
<svg xmlns="http://www.w3.org/2000/svg" version="1.1" width="351px" height="414px" style="shape-rendering:geometricPrecision; text-rendering:geometricPrecision; image-rendering:optimizeQuality; fill-rule:evenodd; clip-rule:evenodd" xmlns:xlink="http://www.w3.org/1999/xlink">
<g><path style="opacity:1" fill="#fdfdfd" d="M -0.5,-0.5 C 116.5,-0.5 233.5,-0.5 350.5,-0.5C 350.5,137.5 350.5,275.5 350.5,413.5C 233.5,413.5 116.5,413.5 -0.5,413.5C -0.5,275.5 -0.5,137.5 -0.5,-0.5 Z"/></g>
<g><path style="opacity:1" fill="#cfdcee" d="M 201.5,42.5 C 200.373,43.1217 199.373,43.955 198.5,45C 191.423,44.7474 184.756,46.2474 178.5,49.5C 173.76,45.4627 168.426,42.4627 162.5,40.5C 159.023,38.7415 155.357,38.2415 151.5,39C 149.901,44.2711 150.568,49.2711 153.5,54C 158.02,54.8136 162.354,54.647 166.5,53.5C 167.735,53.7214 168.735,54.3881 169.5,55.5C 180.026,48.866 191.36,46.6993 203.5,49C 213.502,53.365 216.168,60.1983 211.5,69.5C 210.833,69.8333 210.167,70.1667 209.5,70.5C 207.149,69.8266 204.816,69.1599 202.5,68.5C 201.833,68.5 201.167,68.5 200.5,68.5C 191.962,67.2115 183.295,67.2115 174.5,68.5C 172.901,68.2322 171.568,68.5655 170.5,69.5C 166.613,69.6459 162.946,70.3126 159.5,71.5C 152.518,72.3988 145.518,72.5654 138.5,72C 137.069,71.5348 135.903,70.7014 135,69.5C 133.667,66.8333 132.333,64.1667 131,61.5C 130.516,63.9129 130.85,66.2462 132,68.5C 136.145,72.3145 139.978,76.4812 143.5,81C 153.671,83.8246 164.004,84.3246 174.5,82.5C 181.008,82.1316 187.342,81.465 193.5,80.5C 197.846,80.3343 202.179,80.501 206.5,81C 207.749,83.2096 207.582,85.3763 206,87.5C 199.942,93.4527 192.775,96.7861 184.5,97.5C 164.25,96.9164 145.25,91.7497 127.5,82C 122.112,73.9533 118.779,65.12 117.5,55.5C 117.026,47.9509 119.692,41.7842 125.5,37C 137.295,27.3846 150.628,24.0513 165.5,27C 172.582,30.9162 178.582,36.0828 183.5,42.5C 184.719,41.7366 185.719,40.7366 186.5,39.5C 189.082,43.4889 191.249,43.1556 193,38.5C 193.368,39.91 194.201,40.91 195.5,41.5C 197.319,39.8718 198.653,37.8718 199.5,35.5C 203.526,37.1564 204.193,39.4898 201.5,42.5 Z"/></g>
<g><path style="opacity:1" fill="#4b4d51" d="M 72.5,35.5 C 68.4616,35.9578 64.4616,36.6245 60.5,37.5C 64.268,34.8973 68.268,34.2306 72.5,35.5 Z"/></g>
<g><path style="opacity:1" fill="#221f18" d="M 206.5,46.5 C 205.837,44.9581 205.17,43.2914 204.5,41.5C 203.522,41.9767 202.689,42.6433 202,43.5C 201.601,43.2716 201.435,42.9382 201.5,42.5C 204.193,39.4898 203.526,37.1564 199.5,35.5C 198.653,37.8718 197.319,39.8718 195.5,41.5C 194.201,40.91 193.368,39.91 193,38.5C 191.249,43.1556 189.082,43.4889 186.5,39.5C 185.719,40.7366 184.719,41.7366 183.5,42.5C 178.582,36.0828 172.582,30.9162 165.5,27C 150.628,24.0513 137.295,27.3846 125.5,37C 119.692,41.7842 117.026,47.9509 117.5,55.5C 116.833,59.8333 116.167,64.1667 115.5,68.5C 115.5,62.5 115.5,56.5 115.5,50.5C 116.06,45.3798 118.227,41.0464 122,37.5C 124.316,26.3683 129.15,16.535 136.5,8C 139.377,6.87315 142.377,6.20649 145.5,6C 147.219,3.43009 149.553,1.93009 152.5,1.5C 167.975,5.38018 182.975,10.5469 197.5,17C 202.129,21.2776 202.795,26.2776 199.5,32C 201.645,34.1449 203.812,36.3116 206,38.5C 206.497,41.146 206.664,43.8127 206.5,46.5 Z"/></g>
<g><path style="opacity:1" fill="#7d7561" d="M 165.5,8.5 C 174.205,10.7694 182.039,14.7694 189,20.5C 190.496,27.0992 190.829,33.7658 190,40.5C 189.219,33.7609 188.219,27.0943 187,20.5C 180.143,15.8243 172.976,11.8243 165.5,8.5 Z"/></g>
<g><path style="opacity:1" fill="#888358" d="M 190.5,20.5 C 190.56,19.9569 190.893,19.6236 191.5,19.5C 193.924,20.5197 195.591,22.1864 196.5,24.5C 195.925,28.6222 194.925,32.6222 193.5,36.5C 192.858,30.961 191.858,25.6276 190.5,20.5 Z"/></g>
<g><path style="opacity:1" fill="#aca063" d="M 145.5,9.5 C 145.5,9.83333 145.5,10.1667 145.5,10.5C 144.022,10.238 142.689,10.5713 141.5,11.5C 152.717,13.8498 163.384,17.6831 173.5,23C 176.764,25.8044 178.264,29.3044 178,33.5C 165.96,22.4364 152.46,20.4364 137.5,27.5C 137.5,26.5 137.5,25.5 137.5,24.5C 141.41,24.7372 145.077,23.9039 148.5,22C 153.5,21.6667 158.5,21.3333 163.5,21C 163.833,20.6667 164.167,20.3333 164.5,20C 157.788,16.8776 150.954,16.7109 144,19.5C 140.88,16.831 139.38,17.831 139.5,22.5C 138.5,22.5 137.5,22.5 136.5,22.5C 136.778,20.6536 136.111,19.3202 134.5,18.5C 132.829,20.5098 132.162,22.8431 132.5,25.5C 131.5,25.5 130.5,25.5 129.5,25.5C 129.5,26.5 129.5,27.5 129.5,28.5C 131.861,28.3259 134.194,27.9926 136.5,27.5C 133.027,29.9032 129.36,31.7365 125.5,33C 127.761,24.1423 132.095,16.4756 138.5,10C 140.81,9.50335 143.143,9.33669 145.5,9.5 Z"/></g>
<g><path style="opacity:1" fill="#b6a456" d="M 137.5,27.5 C 137.167,27.5 136.833,27.5 136.5,27.5C 134.194,27.9926 131.861,28.3259 129.5,28.5C 129.5,27.5 129.5,26.5 129.5,25.5C 130.5,25.5 131.5,25.5 132.5,25.5C 132.162,22.8431 132.829,20.5098 134.5,18.5C 136.111,19.3202 136.778,20.6536 136.5,22.5C 137.5,22.5 138.5,22.5 139.5,22.5C 139.38,17.831 140.88,16.831 144,19.5C 150.954,16.7109 157.788,16.8776 164.5,20C 164.167,20.3333 163.833,20.6667 163.5,21C 158.5,21.3333 153.5,21.6667 148.5,22C 145.077,23.9039 141.41,24.7372 137.5,24.5C 137.5,25.5 137.5,26.5 137.5,27.5 Z"/></g>
<g><path style="opacity:1" fill="#696854" d="M 181.5,13.5 C 188.06,13.8827 193.894,16.5494 199,21.5C 199.761,27.46 198.761,33.1266 196,38.5C 197.062,32.9203 197.395,27.2536 197,21.5C 192.208,18.1753 187.041,15.5087 181.5,13.5 Z"/></g>
<g><path style="opacity:1" fill="#8f8a5f" d="M 165.5,8.5 C 161.227,7.17981 156.893,6.34647 152.5,6C 163.625,9.56109 174.292,14.2278 184.5,20C 186.004,21.4907 186.837,23.324 187,25.5C 187.667,29.5 187.667,33.5 187,37.5C 184.102,33.2789 182.102,28.6122 181,23.5C 176.826,18.6535 171.659,15.1535 165.5,13C 159.392,11.3068 153.392,9.30679 147.5,7C 149.346,5.0009 151.679,4.16757 154.5,4.5C 158.771,4.48133 162.438,5.81466 165.5,8.5 Z"/></g>
<g><path style="opacity:1" fill="#817b64" d="M 145.5,10.5 C 145.5,10.1667 145.5,9.83333 145.5,9.5C 156.613,11.2596 166.947,15.093 176.5,21C 180.901,26.7789 183.068,33.2789 183,40.5C 181.572,32.5089 178.072,25.6756 172.5,20C 163.784,15.9287 154.784,12.762 145.5,10.5 Z"/></g>
<g><path style="opacity:1" fill="#2d333b" d="M 162.5,40.5 C 162.158,41.3382 161.492,41.6716 160.5,41.5C 157.873,40.9084 155.206,40.5751 152.5,40.5C 152.163,44.3076 152.663,47.9743 154,51.5C 156.381,52.435 158.881,52.7683 161.5,52.5C 163.042,53.3007 164.708,53.634 166.5,53.5C 162.354,54.647 158.02,54.8136 153.5,54C 150.568,49.2711 149.901,44.2711 151.5,39C 155.357,38.2415 159.023,38.7415 162.5,40.5 Z"/></g>
<g><path style="opacity:1" fill="#f1f3f3" d="M 160.5,41.5 C 160.323,45.2343 160.656,48.9009 161.5,52.5C 158.881,52.7683 156.381,52.435 154,51.5C 152.663,47.9743 152.163,44.3076 152.5,40.5C 155.206,40.5751 157.873,40.9084 160.5,41.5 Z"/></g>
<g><path style="opacity:1" fill="#262c39" d="M 188.5,60.5 C 189.962,61.4577 191.295,62.6244 192.5,64C 190.159,64.1681 188.826,63.0014 188.5,60.5 Z"/></g>
<g><path style="opacity:1" fill="#2f3947" d="M 207.5,61.5 C 208.867,63.0927 208.534,64.4261 206.5,65.5C 206.167,65.1667 205.833,64.8333 205.5,64.5C 206.193,63.4822 206.859,62.4822 207.5,61.5 Z"/></g>
<g><path style="opacity:1" fill="#68656b" d="M 170.5,69.5 C 171.568,68.5655 172.901,68.2322 174.5,68.5C 175.919,69.4511 177.585,69.7845 179.5,69.5C 179.737,70.791 179.404,71.791 178.5,72.5C 178.38,71.4138 177.713,70.7472 176.5,70.5C 175.287,70.7472 174.62,71.4138 174.5,72.5C 173.596,71.791 173.263,70.791 173.5,69.5C 172.5,69.5 171.5,69.5 170.5,69.5 Z"/></g>
<g><path style="opacity:1" fill="#431b1b" d="M 200.5,68.5 C 201.167,68.5 201.833,68.5 202.5,68.5C 202.5,70.8333 202.5,73.1667 202.5,75.5C 201.662,75.8417 201.328,76.5084 201.5,77.5C 200.5,77.5 199.5,77.5 198.5,77.5C 193.338,74.5813 188.005,72.248 182.5,70.5C 188.268,68.7029 194.268,68.0362 200.5,68.5 Z"/></g>
<g><path style="opacity:1" fill="#7f352e" d="M 189.5,69.5 C 193.5,69.5 197.5,69.5 201.5,69.5C 201.967,72.3795 201.134,74.7129 199,76.5C 196.43,74.462 193.596,72.7953 190.5,71.5C 189.702,71.0431 189.369,70.3764 189.5,69.5 Z"/></g>
<g><path style="opacity:1" fill="#ab6e7e" d="M 151.5,74.5 C 150.282,75.1614 148.949,75.8281 147.5,76.5C 147.709,77.086 148.043,77.586 148.5,78C 157.077,79.7836 165.743,80.6169 174.5,80.5C 174.5,80.8333 174.5,81.1667 174.5,81.5C 165.432,81.8813 156.432,81.3813 147.5,80C 144.638,79.0695 142.305,77.4029 140.5,75C 144.152,74.5014 147.818,74.3347 151.5,74.5 Z"/></g>
<g><path style="opacity:1" fill="#d68899" d="M 182.5,70.5 C 188.005,72.248 193.338,74.5813 198.5,77.5C 195.663,79.4023 192.329,80.069 188.5,79.5C 186.055,76.9809 183.388,74.6475 180.5,72.5C 180.855,71.4777 181.522,70.811 182.5,70.5 Z"/></g>
<g><path style="opacity:1" fill="#dd8497" d="M 174.5,80.5 C 165.743,80.6169 157.077,79.7836 148.5,78C 148.043,77.586 147.709,77.086 147.5,76.5C 148.949,75.8281 150.282,75.1614 151.5,74.5C 155.071,73.3578 158.738,72.6911 162.5,72.5C 169.204,69.6908 173.704,71.6908 176,78.5C 176.92,78.9302 177.753,79.2635 178.5,79.5C 177.311,80.4287 175.978,80.762 174.5,80.5 Z"/></g>
<g><path style="opacity:1" fill="#d9dad9" d="M 202.5,75.5 C 203.478,75.811 204.145,76.4777 204.5,77.5C 203.386,78.7759 202.386,78.7759 201.5,77.5C 201.328,76.5084 201.662,75.8417 202.5,75.5 Z"/></g>
<g><path style="opacity:1" fill="#27222b" d="M 159.5,71.5 C 160.791,71.2627 161.791,71.596 162.5,72.5C 158.738,72.6911 155.071,73.3578 151.5,74.5C 147.818,74.3347 144.152,74.5014 140.5,75C 142.305,77.4029 144.638,79.0695 147.5,80C 156.432,81.3813 165.432,81.8813 174.5,81.5C 174.5,81.8333 174.5,82.1667 174.5,82.5C 164.004,84.3246 153.671,83.8246 143.5,81C 139.978,76.4812 136.145,72.3145 132,68.5C 130.85,66.2462 130.516,63.9129 131,61.5C 132.333,64.1667 133.667,66.8333 135,69.5C 135.903,70.7014 137.069,71.5348 138.5,72C 145.518,72.5654 152.518,72.3988 159.5,71.5 Z"/></g>
<g><path style="opacity:1" fill="#1f232b" d="M 225.5,175.5 C 225.5,176.167 225.167,176.5 224.5,176.5C 223.833,176.5 223.167,176.5 222.5,176.5C 221.833,176.5 221.5,176.167 221.5,175.5C 221.715,173.821 221.048,172.821 219.5,172.5C 218.393,170.153 216.726,169.82 214.5,171.5C 213.292,170.766 211.959,170.433 210.5,170.5C 209.377,169.243 208.711,169.576 208.5,171.5C 207.167,170.833 206.167,169.833 205.5,168.5C 205.167,167.833 204.833,167.167 204.5,166.5C 210.315,168.697 216.315,169.53 222.5,169C 226.38,166.621 229.38,163.454 231.5,159.5C 233.847,156.139 235.681,152.472 237,148.5C 238.368,139.87 238.702,131.203 238,122.5C 233.549,114.382 227.383,107.882 219.5,103C 221.598,103.032 223.598,103.699 225.5,105C 231.667,108.5 236.5,113.333 240,119.5C 240.5,129.161 240.666,138.828 240.5,148.5C 238.698,152.408 237.198,156.408 236,160.5C 253.989,171.266 273.156,173.433 293.5,167C 295.833,165.5 298.167,164 300.5,162.5C 300.554,163.53 300.888,164.697 301.5,166C 304.932,168.072 308.598,168.738 312.5,168C 314.667,165.833 316.833,163.667 319,161.5C 319.456,160.256 318.956,159.423 317.5,159C 320.36,156.446 323.693,154.779 327.5,154C 331.841,150.485 334.507,145.985 335.5,140.5C 337.995,127.924 338.162,115.257 336,102.5C 332.155,89.4536 328.155,76.4536 324,63.5C 312.572,47.5205 297.072,37.6872 277.5,34C 269.452,33.2249 261.452,33.5582 253.5,35C 246.679,40.819 242.013,47.9857 239.5,56.5C 236.773,64.0352 239.44,68.3685 247.5,69.5C 247.5,67.5 247.5,65.5 247.5,63.5C 250.066,58.0496 253.399,53.0496 257.5,48.5C 257.833,48.8333 258.167,49.1667 258.5,49.5C 254.87,53.1314 252.536,57.4648 251.5,62.5C 250.225,64.6084 249.725,66.9417 250,69.5C 252.703,71.9021 255.87,73.2354 259.5,73.5C 259.5,71.8333 259.5,70.1667 259.5,68.5C 261.584,62.4986 264.584,56.9986 268.5,52C 269.167,51.3333 269.833,51.3333 270.5,52C 264.407,58.6181 261.74,66.2848 262.5,75C 265.351,76.2886 268.351,76.7886 271.5,76.5C 272.454,68.7591 275.454,61.9258 280.5,56C 281.332,55.3123 281.998,55.479 282.5,56.5C 279.101,60.631 276.768,65.2976 275.5,70.5C 274.371,72.6282 274.204,74.9615 275,77.5C 279.888,80.0071 285.054,80.8404 290.5,80C 291.861,78.4157 292.528,76.5824 292.5,74.5C 290.143,74.6633 287.81,74.4966 285.5,74C 286.416,73.7216 287.082,73.2216 287.5,72.5C 287.938,72.5654 288.272,72.3988 288.5,72C 287.331,69.9935 286.665,67.8268 286.5,65.5C 287.898,67.631 289.565,69.631 291.5,71.5C 293.383,71.1243 294.883,70.1243 296,68.5C 295.068,70.5817 294.568,72.915 294.5,75.5C 295.873,75.6567 297.207,75.49 298.5,75C 300.7,72.7664 302.533,70.2664 304,67.5C 304.464,68.0944 304.631,68.7611 304.5,69.5C 304.5,69.8333 304.5,70.1667 304.5,70.5C 302.697,72.4813 301.03,74.648 299.5,77C 292.368,77.9779 289.034,82.1446 289.5,89.5C 281.185,100.026 280.185,111.359 286.5,123.5C 285.833,124.833 285.167,124.833 284.5,123.5C 283.826,121.805 283.159,120.138 282.5,118.5C 281.752,112.548 281.252,106.548 281,100.5C 275.618,96.8196 269.618,95.1529 263,95.5C 259.195,95.3037 255.695,95.9704 252.5,97.5C 248.891,98.9741 245.557,100.974 242.5,103.5C 242.167,103.333 241.833,103.167 241.5,103C 243.35,100.982 245.35,99.1491 247.5,97.5C 239.213,90.1772 229.547,87.6772 218.5,90C 210.359,92.5665 203.359,96.8999 197.5,103C 196.255,103.791 194.922,104.291 193.5,104.5C 192.761,104.631 192.094,104.464 191.5,104C 206.526,94.9461 205.36,93.1128 188,98.5C 186.615,98.4857 185.449,98.1524 184.5,97.5C 192.775,96.7861 199.942,93.4527 206,87.5C 207.582,85.3763 207.749,83.2096 206.5,81C 202.179,80.501 197.846,80.3343 193.5,80.5C 191.585,80.7845 189.919,80.4511 188.5,79.5C 192.329,80.069 195.663,79.4023 198.5,77.5C 199.5,77.5 200.5,77.5 201.5,77.5C 202.386,78.7759 203.386,78.7759 204.5,77.5C 204.145,76.4777 203.478,75.811 202.5,75.5C 202.5,73.1667 202.5,70.8333 202.5,68.5C 204.816,69.1599 207.149,69.8266 209.5,70.5C 210.167,70.1667 210.833,69.8333 211.5,69.5C 216.168,60.1983 213.502,53.365 203.5,49C 191.36,46.6993 180.026,48.866 169.5,55.5C 168.735,54.3881 167.735,53.7214 166.5,53.5C 164.708,53.634 163.042,53.3007 161.5,52.5C 160.656,48.9009 160.323,45.2343 160.5,41.5C 161.492,41.6716 162.158,41.3382 162.5,40.5C 168.426,42.4627 173.76,45.4627 178.5,49.5C 184.756,46.2474 191.423,44.7474 198.5,45C 199.373,43.955 200.373,43.1217 201.5,42.5C 201.435,42.9382 201.601,43.2716 202,43.5C 202.689,42.6433 203.522,41.9767 204.5,41.5C 205.17,43.2914 205.837,44.9581 206.5,46.5C 209.079,49.5839 211.913,52.5839 215,55.5C 216.923,59.8051 216.923,64.1384 215,68.5C 212.054,70.9559 209.387,73.6226 207,76.5C 206.333,77.5 206.333,78.5 207,79.5C 209.27,81.3145 209.936,83.6479 209,86.5C 207.542,88.96 205.709,91.1266 203.5,93C 204.833,93.6667 206.167,93.6667 207.5,93C 217.607,86.8954 228.274,85.8954 239.5,90C 243.345,91.4198 246.678,93.5865 249.5,96.5C 257.588,93.0571 265.922,92.5571 274.5,95C 277.112,95.6395 279.446,96.8062 281.5,98.5C 285.762,93.6413 288.095,87.9746 288.5,81.5C 284.429,81.7662 280.429,81.4328 276.5,80.5C 275.289,82.4219 273.956,84.2552 272.5,86C 261.658,86.8304 252.158,83.6637 244,76.5C 243.808,74.4233 243.308,72.4233 242.5,70.5C 236.478,67.7111 234.312,63.0445 236,56.5C 238.964,48.0717 243.797,40.905 250.5,35C 252.49,33.2494 254.823,32.2494 257.5,32C 284.051,29.5095 305.884,38.3428 323,58.5C 330.054,75.3304 335.721,92.6637 340,110.5C 342.393,125.057 340.06,138.724 333,151.5C 330.658,154.754 327.491,156.588 323.5,157C 320.55,161.618 317.216,165.952 313.5,170C 311.167,170.667 308.833,170.667 306.5,170C 303.845,168.559 301.012,167.726 298,167.5C 275.576,177.14 254.243,175.14 234,161.5C 230.29,165.042 226.79,168.708 223.5,172.5C 223.453,174.038 224.12,175.038 225.5,175.5 Z"/></g>
<g><path style="opacity:1" fill="#afb6c5" d="M 246.5,71.5 C 252.119,73.7624 257.786,75.9291 263.5,78C 266.817,78.4983 270.15,78.665 273.5,78.5C 273.822,80.7224 273.155,82.5557 271.5,84C 263.156,84.6641 255.489,82.6641 248.5,78C 246.771,76.2111 246.104,74.0444 246.5,71.5 Z"/></g>
<g><path style="opacity:1" fill="#afb8c5" d="M 275.5,70.5 C 275.5,71.5 275.5,72.5 275.5,73.5C 276.822,73.33 277.989,73.6634 279,74.5C 281.621,73.0085 284.455,72.3418 287.5,72.5C 287.082,73.2216 286.416,73.7216 285.5,74C 287.81,74.4966 290.143,74.6633 292.5,74.5C 292.528,76.5824 291.861,78.4157 290.5,80C 285.054,80.8404 279.888,80.0071 275,77.5C 274.204,74.9615 274.371,72.6282 275.5,70.5 Z"/></g>
<g><path style="opacity:1" fill="#c5cfd0" d="M 203.5,70.5 C 207.789,70.7442 208.456,72.4109 205.5,75.5C 204.05,74.1502 203.383,72.4835 203.5,70.5 Z"/></g>
<g><path style="opacity:1" fill="#adb6c2" d="M 251.5,62.5 C 251.297,64.3904 251.963,65.8904 253.5,67C 255.586,67.3153 257.586,67.8153 259.5,68.5C 259.5,70.1667 259.5,71.8333 259.5,73.5C 255.87,73.2354 252.703,71.9021 250,69.5C 249.725,66.9417 250.225,64.6084 251.5,62.5 Z"/></g>
<g><path style="opacity:1" fill="#b0b8c5" d="M 239.5,56.5 C 240.459,60.6644 243.126,62.9977 247.5,63.5C 247.5,65.5 247.5,67.5 247.5,69.5C 239.44,68.3685 236.773,64.0352 239.5,56.5 Z"/></g>
<g><path style="opacity:1" fill="#c8cecf" d="M 172.5,47.5 C 177.665,49.2776 177.665,50.6109 172.5,51.5C 172.5,50.1667 172.5,48.8333 172.5,47.5 Z"/></g>
<g><path style="opacity:1" fill="#b92443" d="M 161.5,42.5 C 162.822,42.33 163.989,42.6634 165,43.5C 165.202,45.2556 165.702,46.9223 166.5,48.5C 169.974,44.3184 171.474,44.985 171,50.5C 168.847,52.4439 166.347,52.9439 163.5,52C 161.773,49.0964 161.107,45.9297 161.5,42.5 Z"/></g>
<g><path style="opacity:1" fill="#37272f" d="M 200.5,68.5 C 194.268,68.0362 188.268,68.7029 182.5,70.5C 181.522,70.811 180.855,71.4777 180.5,72.5C 183.388,74.6475 186.055,76.9809 188.5,79.5C 189.919,80.4511 191.585,80.7845 193.5,80.5C 187.342,81.465 181.008,82.1316 174.5,82.5C 174.5,82.1667 174.5,81.8333 174.5,81.5C 174.5,81.1667 174.5,80.8333 174.5,80.5C 175.978,80.762 177.311,80.4287 178.5,79.5C 177.753,79.2635 176.92,78.9302 176,78.5C 173.704,71.6908 169.204,69.6908 162.5,72.5C 161.791,71.596 160.791,71.2627 159.5,71.5C 162.946,70.3126 166.613,69.6459 170.5,69.5C 171.5,69.5 172.5,69.5 173.5,69.5C 173.263,70.791 173.596,71.791 174.5,72.5C 176.217,77.5976 177.55,77.5976 178.5,72.5C 179.404,71.791 179.737,70.791 179.5,69.5C 177.585,69.7845 175.919,69.4511 174.5,68.5C 183.295,67.2115 191.962,67.2115 200.5,68.5 Z"/></g>
<g><path style="opacity:1" fill="#eae7ea" d="M 181.5,75.5 C 182.837,76.3149 183.837,77.4815 184.5,79C 183.056,79.7805 181.723,79.6139 180.5,78.5C 181.127,77.5832 181.461,76.5832 181.5,75.5 Z"/></g>
<g><path style="opacity:1" fill="#f3f1f1" d="M 178.5,72.5 C 177.55,77.5976 176.217,77.5976 174.5,72.5C 174.62,71.4138 175.287,70.7472 176.5,70.5C 177.713,70.7472 178.38,71.4138 178.5,72.5 Z"/></g>
<g><path style="opacity:1" fill="#b2bccc" d="M 304.5,70.5 C 304.453,73.5682 303.953,76.5682 303,79.5C 298.954,83.4403 294.454,86.7737 289.5,89.5C 289.034,82.1446 292.368,77.9779 299.5,77C 301.03,74.648 302.697,72.4813 304.5,70.5 Z"/></g>
<g><path style="opacity:1" fill="#b3bbcc" d="M 117.5,55.5 C 118.779,65.12 122.112,73.9533 127.5,82C 145.25,91.7497 164.25,96.9164 184.5,97.5C 185.449,98.1524 186.615,98.4857 188,98.5C 205.36,93.1128 206.526,94.9461 191.5,104C 192.094,104.464 192.761,104.631 193.5,104.5C 189.308,105.216 185.308,106.549 181.5,108.5C 180.833,108.5 180.167,108.5 179.5,108.5C 176.833,107.5 174.167,106.5 171.5,105.5C 158.041,99.7372 144.041,95.2372 129.5,92C 121.369,90.6994 114.036,92.5327 107.5,97.5C 105.483,96.8257 103.817,95.6591 102.5,94C 105.63,91.872 108.463,89.372 111,86.5C 111.333,87.5 111.667,88.5 112,89.5C 113.185,87.6228 114.185,85.6228 115,83.5C 115.499,78.5111 115.666,73.5111 115.5,68.5C 116.167,64.1667 116.833,59.8333 117.5,55.5 Z"/></g>
<g><path style="opacity:1" fill="#d0ddef" d="M 171.5,105.5 C 174.167,106.5 176.833,107.5 179.5,108.5C 182.578,113.653 185.411,118.986 188,124.5C 188.5,132.493 188.666,140.493 188.5,148.5C 184.295,152.358 179.295,154.858 173.5,156C 158.981,159.154 144.314,160.154 129.5,159C 125.104,156.938 121.27,154.105 118,150.5C 117.823,146.644 117.323,142.977 116.5,139.5C 115.119,131.879 113.952,124.212 113,116.5C 113.082,125.502 113.582,134.502 114.5,143.5C 114.719,147.752 114.053,151.752 112.5,155.5C 108.45,156.473 105.117,158.64 102.5,162C 96.9221,164.122 91.2554,166.122 85.5,168C 82.456,168.363 79.456,168.863 76.5,169.5C 77.3782,165.415 79.0449,161.748 81.5,158.5C 83.1986,150.686 82.6986,143.019 80,135.5C 74.2835,124.916 66.7835,115.749 57.5,108C 58.77,104.797 60.77,102.13 63.5,100C 67.1927,98.2858 70.8594,96.6191 74.5,95C 91.9643,90.5478 105.464,95.7145 115,110.5C 115.667,109.5 115.667,108.5 115,107.5C 112.49,104.801 110.824,101.801 110,98.5C 119.399,92.9439 129.232,92.1106 139.5,96C 149.938,100.107 160.604,103.274 171.5,105.5 Z"/></g>
<g><path style="opacity:1" fill="#2d1b25" d="M 94.5,103.5 C 96.604,103.201 98.604,103.534 100.5,104.5C 92.731,109.802 85.231,115.469 78,121.5C 77.4484,118.581 78.1151,115.914 80,113.5C 83.6886,108.28 88.5219,104.947 94.5,103.5 Z"/></g>
<g><path style="opacity:1" fill="#862d48" d="M 89.5,106.5 C 90.8734,106.343 92.2068,106.51 93.5,107C 89.6667,110.167 85.8333,113.333 82,116.5C 81.3333,115.5 81.3333,114.5 82,113.5C 84.3959,110.933 86.8959,108.6 89.5,106.5 Z"/></g>
<g><path style="opacity:1" fill="#d0dcee" d="M 335.5,140.5 C 332.532,143.591 328.865,145.758 324.5,147C 320.584,148.102 316.584,148.769 312.5,149C 302.132,153.259 291.465,156.593 280.5,159C 275.167,159.667 269.833,159.667 264.5,159C 256.147,156.165 248.147,152.665 240.5,148.5C 240.666,138.828 240.5,129.161 240,119.5C 236.5,113.333 231.667,108.5 225.5,105C 223.598,103.699 221.598,103.032 219.5,103C 227.383,107.882 233.549,114.382 238,122.5C 238.702,131.203 238.368,139.87 237,148.5C 235.681,152.472 233.847,156.139 231.5,159.5C 218.237,162.523 205.237,161.523 192.5,156.5C 192.737,155.209 192.404,154.209 191.5,153.5C 191.666,143.828 191.5,134.161 191,124.5C 188.591,118.676 185.424,113.343 181.5,108.5C 185.308,106.549 189.308,105.216 193.5,104.5C 194.922,104.291 196.255,103.791 197.5,103C 203.359,96.8999 210.359,92.5665 218.5,90C 229.547,87.6772 239.213,90.1772 247.5,97.5C 245.35,99.1491 243.35,100.982 241.5,103C 241.833,103.167 242.167,103.333 242.5,103.5C 245.557,100.974 248.891,98.9741 252.5,97.5C 264.95,95.464 273.95,99.964 279.5,111C 279.164,112.03 278.497,112.53 277.5,112.5C 268.21,105.536 258.544,104.87 248.5,110.5C 249.025,111.192 249.692,111.692 250.5,112C 258.969,112.957 267.303,114.457 275.5,116.5C 277.715,117.268 280.048,117.935 282.5,118.5C 283.159,120.138 283.826,121.805 284.5,123.5C 285.167,124.833 285.833,124.833 286.5,123.5C 280.185,111.359 281.185,100.026 289.5,89.5C 294.454,86.7737 298.954,83.4403 303,79.5C 303.953,76.5682 304.453,73.5682 304.5,70.5C 304.5,70.1667 304.5,69.8333 304.5,69.5C 305.573,68.7494 305.74,67.7494 305,66.5C 299.086,61.656 292.919,61.3226 286.5,65.5C 286.665,67.8268 287.331,69.9935 288.5,72C 288.272,72.3988 287.938,72.5654 287.5,72.5C 284.455,72.3418 281.621,73.0085 279,74.5C 277.989,73.6634 276.822,73.33 275.5,73.5C 275.5,72.5 275.5,71.5 275.5,70.5C 276.768,65.2976 279.101,60.631 282.5,56.5C 281.998,55.479 281.332,55.3123 280.5,56C 275.454,61.9258 272.454,68.7591 271.5,76.5C 268.351,76.7886 265.351,76.2886 262.5,75C 261.74,66.2848 264.407,58.6181 270.5,52C 269.833,51.3333 269.167,51.3333 268.5,52C 264.584,56.9986 261.584,62.4986 259.5,68.5C 257.586,67.8153 255.586,67.3153 253.5,67C 251.963,65.8904 251.297,64.3904 251.5,62.5C 252.536,57.4648 254.87,53.1314 258.5,49.5C 258.167,49.1667 257.833,48.8333 257.5,48.5C 253.399,53.0496 250.066,58.0496 247.5,63.5C 243.126,62.9977 240.459,60.6644 239.5,56.5C 242.013,47.9857 246.679,40.819 253.5,35C 261.452,33.5582 269.452,33.2249 277.5,34C 297.072,37.6872 312.572,47.5205 324,63.5C 328.155,76.4536 332.155,89.4536 336,102.5C 338.162,115.257 337.995,127.924 335.5,140.5 Z"/></g>
<g><path style="opacity:1" fill="#a92440" d="M 259.5,122.5 C 262.498,124.666 265.832,126.333 269.5,127.5C 266.232,128.487 262.898,128.82 259.5,128.5C 256.669,126.583 253.669,124.917 250.5,123.5C 250.5,122.5 250.5,121.5 250.5,120.5C 253.426,121.461 256.426,122.127 259.5,122.5 Z"/></g>
<g><path style="opacity:1" fill="#301b20" d="M 250.5,123.5 C 253.669,124.917 256.669,126.583 259.5,128.5C 255.453,128.645 252.453,126.978 250.5,123.5 Z"/></g>
<g><path style="opacity:1" fill="#2c1720" d="M 259.5,122.5 C 256.426,122.127 253.426,121.461 250.5,120.5C 250.5,121.5 250.5,122.5 250.5,123.5C 248.273,122.599 247.273,120.933 247.5,118.5C 251.915,118.861 255.915,120.194 259.5,122.5 Z"/></g>
<g><path style="opacity:1" fill="#3b1c27" d="M 326.5,101.5 C 331.631,112.878 331.464,124.211 326,135.5C 324.167,137.333 322.333,139.167 320.5,141C 319.668,141.688 319.002,141.521 318.5,140.5C 324.255,129.428 325.922,117.761 323.5,105.5C 324.302,104.048 324.802,102.382 325,100.5C 325.333,101.5 325.667,102.5 326,103.5C 326.464,102.906 326.631,102.239 326.5,101.5 Z"/></g>
<g><path style="opacity:1" fill="#372027" d="M 297.5,88.5 C 298.147,89.2739 298.48,90.2739 298.5,91.5C 296.999,103.52 295.499,115.52 294,127.5C 293.743,123.623 292.743,119.957 291,116.5C 289.164,106.187 291.331,96.8537 297.5,88.5 Z"/></g>
<g><path style="opacity:1" fill="#3c1b27" d="M 277.5,112.5 C 278.23,113.712 279.23,114.712 280.5,115.5C 278.955,116.452 277.288,116.785 275.5,116.5C 267.303,114.457 258.969,112.957 250.5,112C 249.692,111.692 249.025,111.192 248.5,110.5C 258.544,104.87 268.21,105.536 277.5,112.5 Z"/></g>
<g><path style="opacity:1" fill="#c12746" d="M 254.5,108.5 C 261.799,107.489 268.466,108.989 274.5,113C 267.394,113.157 260.394,112.323 253.5,110.5C 253.863,109.817 254.196,109.15 254.5,108.5 Z"/></g>
<g><path style="opacity:1" fill="#a82b43" d="M 294.5,96.5 C 295.147,97.2739 295.48,98.2739 295.5,99.5C 295.059,104.599 294.226,109.599 293,114.5C 291.912,112.712 291.412,110.712 291.5,108.5C 291.687,104.276 292.687,100.276 294.5,96.5 Z"/></g>
<g><path style="opacity:1" fill="#b1bac9" d="M 282.5,118.5 C 280.048,117.935 277.715,117.268 275.5,116.5C 277.288,116.785 278.955,116.452 280.5,115.5C 279.23,114.712 278.23,113.712 277.5,112.5C 278.497,112.53 279.164,112.03 279.5,111C 273.95,99.964 264.95,95.464 252.5,97.5C 255.695,95.9704 259.195,95.3037 263,95.5C 269.618,95.1529 275.618,96.8196 281,100.5C 281.252,106.548 281.752,112.548 282.5,118.5 Z"/></g>
<g><path style="opacity:1" fill="#411a25" d="M 312.5,93.5 C 313.525,105.927 312.692,118.26 310,130.5C 309.64,132.421 308.806,134.088 307.5,135.5C 306.132,122.449 306.465,109.449 308.5,96.5C 309.161,95.2825 309.828,93.9492 310.5,92.5C 311.183,92.8627 311.85,93.1961 312.5,93.5 Z"/></g>
<g><path style="opacity:1" fill="#93273c" d="M 309.5,104.5 C 309.335,108.182 309.501,111.848 310,115.5C 310.232,114.263 310.732,113.263 311.5,112.5C 311.15,117.973 310.15,123.306 308.5,128.5C 308.167,126.833 307.833,125.167 307.5,123.5C 307.936,116.991 308.603,110.658 309.5,104.5 Z"/></g>
<g><path style="opacity:1" fill="#c42d46" d="M 311.5,112.5 C 310.732,113.263 310.232,114.263 310,115.5C 309.501,111.848 309.335,108.182 309.5,104.5C 309.148,101.927 309.648,99.5938 311,97.5C 311.499,102.489 311.666,107.489 311.5,112.5 Z"/></g>
<g><path style="opacity:1" fill="#242533" d="M 326.5,101.5 C 326.631,102.239 326.464,102.906 326,103.5C 325.667,102.5 325.333,101.5 325,100.5C 324.802,102.382 324.302,104.048 323.5,105.5C 322.548,98.8018 321.715,92.1351 321,85.5C 323.126,90.7123 324.96,96.0456 326.5,101.5 Z"/></g>
<g><path style="opacity:1" fill="#393440" d="M 312.5,93.5 C 311.85,93.1961 311.183,92.8627 310.5,92.5C 309.828,93.9492 309.161,95.2825 308.5,96.5C 307.958,92.4557 308.791,88.789 311,85.5C 312.252,88.0135 312.752,90.6802 312.5,93.5 Z"/></g>
<g><path style="opacity:1" fill="#b3bbca" d="M 304.5,69.5 C 304.631,68.7611 304.464,68.0944 304,67.5C 302.533,70.2664 300.7,72.7664 298.5,75C 297.207,75.49 295.873,75.6567 294.5,75.5C 294.568,72.915 295.068,70.5817 296,68.5C 294.883,70.1243 293.383,71.1243 291.5,71.5C 289.565,69.631 287.898,67.631 286.5,65.5C 292.919,61.3226 299.086,61.656 305,66.5C 305.74,67.7494 305.573,68.7494 304.5,69.5 Z"/></g>
<g><path style="opacity:1" fill="#a42743" d="M 325.5,108.5 C 326.821,111.598 327.488,115.098 327.5,119C 328,124.519 327,129.685 324.5,134.5C 323.276,132.102 323.442,129.769 325,127.5C 325.5,121.175 325.666,114.842 325.5,108.5 Z"/></g>
<g><path style="opacity:1" fill="#1f2530" d="M 179.5,108.5 C 180.167,108.5 180.833,108.5 181.5,108.5C 185.424,113.343 188.591,118.676 191,124.5C 191.5,134.161 191.666,143.828 191.5,153.5C 190.167,155.833 188.833,158.167 187.5,160.5C 186.833,160.5 186.167,160.5 185.5,160.5C 187.316,156.716 188.316,152.716 188.5,148.5C 188.666,140.493 188.5,132.493 188,124.5C 185.411,118.986 182.578,113.653 179.5,108.5 Z"/></g>
<g><path style="opacity:1" fill="#331c28" d="M 259.5,122.5 C 267.097,124.033 274.431,126.366 281.5,129.5C 274.858,130.664 268.192,130.831 261.5,130C 260.584,129.722 259.918,129.222 259.5,128.5C 262.898,128.82 266.232,128.487 269.5,127.5C 265.832,126.333 262.498,124.666 259.5,122.5 Z"/></g>
<g><path style="opacity:1" fill="#93979e" d="M 262.5,146.5 C 270.483,147.166 278.483,147.499 286.5,147.5C 278.445,148.889 270.445,148.556 262.5,146.5 Z"/></g>
<g><path style="opacity:1" fill="#3a1723" d="M 262.5,146.5 C 270.445,148.556 278.445,148.889 286.5,147.5C 288.337,147.639 288.67,148.306 287.5,149.5C 285.446,151.194 283.112,152.361 280.5,153C 275.316,153.816 270.316,153.65 265.5,152.5C 259.642,151.905 254.976,149.238 251.5,144.5C 251.667,144.167 251.833,143.833 252,143.5C 255.334,145.042 258.834,146.042 262.5,146.5 Z"/></g>
<g><path style="opacity:1" fill="#b3bdcd" d="M 335.5,140.5 C 334.507,145.985 331.841,150.485 327.5,154C 323.693,154.779 320.36,156.446 317.5,159C 318.956,159.423 319.456,160.256 319,161.5C 316.833,163.667 314.667,165.833 312.5,168C 308.598,168.738 304.932,168.072 301.5,166C 300.888,164.697 300.554,163.53 300.5,162.5C 298.167,164 295.833,165.5 293.5,167C 273.156,173.433 253.989,171.266 236,160.5C 237.198,156.408 238.698,152.408 240.5,148.5C 248.147,152.665 256.147,156.165 264.5,159C 269.833,159.667 275.167,159.667 280.5,159C 291.465,156.593 302.132,153.259 312.5,149C 316.584,148.769 320.584,148.102 324.5,147C 328.865,145.758 332.532,143.591 335.5,140.5 Z"/></g>
<g><path style="opacity:1" fill="#932940" d="M 265.5,152.5 C 263.811,151.696 262.145,150.696 260.5,149.5C 267.216,148.737 273.882,149.237 280.5,151C 275.691,152.442 270.691,152.942 265.5,152.5 Z"/></g>
<g><path style="opacity:1" fill="#b5bdd0" d="M 116.5,139.5 C 117.323,142.977 117.823,146.644 118,150.5C 121.27,154.105 125.104,156.938 129.5,159C 144.314,160.154 158.981,159.154 173.5,156C 179.295,154.858 184.295,152.358 188.5,148.5C 188.316,152.716 187.316,156.716 185.5,160.5C 184.317,161.504 182.984,162.338 181.5,163C 168.055,165.361 154.721,168.361 141.5,172C 136.61,172.966 131.943,172.466 127.5,170.5C 122.881,166.548 118.548,162.215 114.5,157.5C 116.233,151.641 116.9,145.641 116.5,139.5 Z"/></g>
<g><path style="opacity:1" fill="#4f4113" d="M 176.5,165.5 C 177.919,164.549 179.585,164.216 181.5,164.5C 183.5,165.167 185.5,165.833 187.5,166.5C 184.5,166.5 181.5,166.5 178.5,166.5C 178.737,167.791 178.404,168.791 177.5,169.5C 177.768,167.901 177.434,166.568 176.5,165.5 Z"/></g>
<g><path style="opacity:1" fill="#afb9ca" d="M 191.5,153.5 C 192.404,154.209 192.737,155.209 192.5,156.5C 205.237,161.523 218.237,162.523 231.5,159.5C 229.38,163.454 226.38,166.621 222.5,169C 216.315,169.53 210.315,168.697 204.5,166.5C 198.889,165.278 193.223,164.111 187.5,163C 186.402,162.23 186.402,161.397 187.5,160.5C 188.833,158.167 190.167,155.833 191.5,153.5 Z"/></g>
<g><path style="opacity:1" fill="#b3bccb" d="M 126.5,172.5 C 127.167,172.833 127.833,173.167 128.5,173.5C 128.918,174.222 129.584,174.722 130.5,175C 124.121,178 118.788,182.166 114.5,187.5C 113.85,187.804 113.183,188.137 112.5,188.5C 110.315,182.481 106.482,177.815 101,174.5C 104.449,169.875 108.616,165.542 113.5,161.5C 117.559,165.565 121.893,169.232 126.5,172.5 Z"/></g>
<g><path style="opacity:1" fill="#574a11" d="M 153.5,171.5 C 154.919,170.549 156.585,170.216 158.5,170.5C 155.083,176.694 153.749,183.361 154.5,190.5C 153.683,188.031 153.183,185.365 153,182.5C 152.503,185.146 152.336,187.813 152.5,190.5C 150.709,184.317 151.709,178.484 155.5,173C 155.164,171.97 154.497,171.47 153.5,171.5 Z"/></g>
<g><path style="opacity:1" fill="#20252e" d="M 72.5,35.5 C 83.9608,38.7892 91.7941,46.1225 96,57.5C 96.6667,60.5 96.6667,63.5 96,66.5C 94.5962,68.3939 93.4295,70.3939 92.5,72.5C 93.4399,75.1316 93.6066,77.7983 93,80.5C 90.2889,84.7123 86.7889,88.0456 82.5,90.5C 81.7109,90.7828 81.0442,91.2828 80.5,92C 84.4862,92.4988 88.4862,92.6655 92.5,92.5C 100.63,92.5769 107.13,89.2436 112,82.5C 113.762,71.7889 114.929,61.1223 115.5,50.5C 115.5,56.5 115.5,62.5 115.5,68.5C 115.666,73.5111 115.499,78.5111 115,83.5C 114.185,85.6228 113.185,87.6228 112,89.5C 111.667,88.5 111.333,87.5 111,86.5C 108.463,89.372 105.63,91.872 102.5,94C 103.817,95.6591 105.483,96.8257 107.5,97.5C 114.036,92.5327 121.369,90.6994 129.5,92C 144.041,95.2372 158.041,99.7372 171.5,105.5C 160.604,103.274 149.938,100.107 139.5,96C 129.232,92.1106 119.399,92.9439 110,98.5C 110.824,101.801 112.49,104.801 115,107.5C 115.667,108.5 115.667,109.5 115,110.5C 105.464,95.7145 91.9643,90.5478 74.5,95C 70.8594,96.6191 67.1927,98.2858 63.5,100C 60.77,102.13 58.77,104.797 57.5,108C 66.7835,115.749 74.2835,124.916 80,135.5C 82.6986,143.019 83.1986,150.686 81.5,158.5C 80.0755,160.031 79.4088,159.698 79.5,157.5C 81.5956,148.826 80.429,140.493 76,132.5C 74.3015,129.079 72.1348,126.079 69.5,123.5C 65.5423,117.708 60.7089,112.708 55,108.5C 53.6591,105.978 52.8257,103.311 52.5,100.5C 47.3618,98.4972 42.0285,96.9972 36.5,96C 33.4769,93.8225 31.4769,90.9892 30.5,87.5C 30.2627,86.209 30.596,85.209 31.5,84.5C 32.9948,90.9982 36.9948,94.6649 43.5,95.5C 43.2333,91.4256 41.9,87.7589 39.5,84.5C 39.6236,83.8933 39.9569,83.56 40.5,83.5C 43.1819,87.5066 46.1819,91.1733 49.5,94.5C 48.2073,95.6448 47.0407,95.3115 46,93.5C 45.4926,94.9961 45.9926,96.1627 47.5,97C 57.2354,99.3817 61.9021,95.8817 61.5,86.5C 58.98,79.4579 54.6467,73.6246 48.5,69C 50.6313,69.3983 52.6313,70.3983 54.5,72C 60.0471,76.597 63.3804,82.4303 64.5,89.5C 70.8511,89.1489 74.1845,85.8156 74.5,79.5C 72.1957,71.9077 67.6957,65.9077 61,61.5C 60.3333,60.8333 60.3333,60.1667 61,59.5C 67.7921,64.0734 72.9588,70.0734 76.5,77.5C 80.6475,79.2205 83.4808,77.8871 85,73.5C 85.6667,71.1667 85.6667,68.8333 85,66.5C 81.1667,60.6667 76.3333,55.8333 70.5,52C 71.5,51.3333 72.5,51.3333 73.5,52C 80.282,56.2673 84.9486,62.1007 87.5,69.5C 93.2178,68.0786 95.3845,64.412 94,58.5C 89.9264,46.5846 81.7598,39.5846 69.5,37.5C 58.3828,39.8147 48.0494,43.9813 38.5,50C 32,57.8333 25.5,65.6667 19,73.5C 15.047,79.0269 12.047,85.0269 10,91.5C 8.96306,114.828 8.62972,138.161 9,161.5C 9.98616,164.806 11.4862,167.806 13.5,170.5C 21.5697,179.542 31.5697,185.542 43.5,188.5C 44.1924,187.975 44.6924,187.308 45,186.5C 49.108,188.988 53.608,189.988 58.5,189.5C 61.5,189.333 64.5,189.167 67.5,189C 71.2686,182.643 74.2686,176.143 76.5,169.5C 76.5358,174.062 75.5358,178.396 73.5,182.5C 87.7862,179.594 99.9528,172.594 110,161.5C 111.122,159.593 111.955,157.593 112.5,155.5C 114.053,151.752 114.719,147.752 114.5,143.5C 113.582,134.502 113.082,125.502 113,116.5C 113.952,124.212 115.119,131.879 116.5,139.5C 116.9,145.641 116.233,151.641 114.5,157.5C 118.548,162.215 122.881,166.548 127.5,170.5C 126.662,170.842 126.328,171.508 126.5,172.5C 121.893,169.232 117.559,165.565 113.5,161.5C 108.616,165.542 104.449,169.875 101,174.5C 106.482,177.815 110.315,182.481 112.5,188.5C 113.183,188.137 113.85,187.804 114.5,187.5C 114.737,188.791 114.404,189.791 113.5,190.5C 112.833,190.5 112.167,190.5 111.5,190.5C 108.209,184.209 103.542,179.209 97.5,175.5C 89.4557,179.74 81.1223,183.407 72.5,186.5C 71.376,187.914 70.376,189.414 69.5,191C 45.9843,194.496 26.151,187.663 10,170.5C 8.66667,167.833 7.33333,165.167 6,162.5C 6.16644,139.177 6.49978,115.843 7,92.5C 8.57968,86.0081 11.2463,80.0081 15,74.5C 22.5,65.6667 30,56.8333 37.5,48C 44.6501,43.4259 52.3168,39.9259 60.5,37.5C 64.4616,36.6245 68.4616,35.9578 72.5,35.5 Z"/></g>
<g><path style="opacity:1" fill="#b5bdcf" d="M 79.5,157.5 C 79.4088,159.698 80.0755,160.031 81.5,158.5C 79.0449,161.748 77.3782,165.415 76.5,169.5C 74.2686,176.143 71.2686,182.643 67.5,189C 64.5,189.167 61.5,189.333 58.5,189.5C 53.608,189.988 49.108,188.988 45,186.5C 44.6924,187.308 44.1924,187.975 43.5,188.5C 31.5697,185.542 21.5697,179.542 13.5,170.5C 20.0523,172.939 26.719,175.105 33.5,177C 52.6114,178.788 67.9447,172.288 79.5,157.5 Z"/></g>
<g><path style="opacity:1" fill="#b4bccd" d="M 112.5,155.5 C 111.955,157.593 111.122,159.593 110,161.5C 99.9528,172.594 87.7862,179.594 73.5,182.5C 75.5358,178.396 76.5358,174.062 76.5,169.5C 79.456,168.863 82.456,168.363 85.5,168C 91.2554,166.122 96.9221,164.122 102.5,162C 105.117,158.64 108.45,156.473 112.5,155.5 Z"/></g>
<g><path style="opacity:1" fill="#2f1923" d="M 106.5,140.5 C 107.649,140.791 108.316,141.624 108.5,143C 106.683,153.819 100.35,158.485 89.5,157C 87.5614,156.092 86.5614,154.592 86.5,152.5C 95.3931,152.059 102.06,148.059 106.5,140.5 Z"/></g>
<g><path style="opacity:1" fill="#b02942" d="M 105.5,144.5 C 106.043,144.56 106.376,144.893 106.5,145.5C 103.433,153.875 97.7659,157.041 89.5,155C 96.0304,153.241 101.364,149.741 105.5,144.5 Z"/></g>
<g><path style="opacity:1" fill="#341a25" d="M 102.5,118.5 C 103.376,118.369 104.043,118.702 104.5,119.5C 102.834,125.684 99.1674,130.184 93.5,133C 90.7728,133.818 88.1062,133.652 85.5,132.5C 91.1858,127.81 96.8525,123.143 102.5,118.5 Z"/></g>
<g><path style="opacity:1" fill="#9a314d" d="M 97.5,124.5 C 98.3764,124.369 99.0431,124.702 99.5,125.5C 97.3863,129.694 94.053,131.528 89.5,131C 92.4202,129.054 95.0869,126.887 97.5,124.5 Z"/></g>
<g><path style="opacity:1" fill="#281b24" d="M 68.5,125.5 C 71.3855,131.237 72.0521,137.237 70.5,143.5C 69.104,139.045 67.4373,134.712 65.5,130.5C 60.204,123.869 54.5374,117.535 48.5,111.5C 47.0888,108.676 47.2555,106.01 49,103.5C 49,104.833 49,106.167 49,107.5C 56.9766,111.98 63.4766,117.98 68.5,125.5 Z"/></g>
<g><path style="opacity:1" fill="#902a45" d="M 65.5,130.5 C 62.6858,124.506 58.8524,119.173 54,114.5C 53.3333,113.833 53.3333,113.167 54,112.5C 60.1635,116.491 64.6635,121.825 67.5,128.5C 67.2528,129.713 66.5862,130.38 65.5,130.5 Z"/></g>
<g><path style="opacity:1" fill="#b5becc" d="M 30.5,87.5 C 31.4769,90.9892 33.4769,93.8225 36.5,96C 42.0285,96.9972 47.3618,98.4972 52.5,100.5C 52.8257,103.311 53.6591,105.978 55,108.5C 60.7089,112.708 65.5423,117.708 69.5,123.5C 68.6618,123.842 68.3284,124.508 68.5,125.5C 63.4766,117.98 56.9766,111.98 49,107.5C 49,106.167 49,104.833 49,103.5C 47.2555,106.01 47.0888,108.676 48.5,111.5C 43.3425,110.68 38.5091,108.346 34,104.5C 33.4478,101.953 32.1144,99.9533 30,98.5C 29.1901,94.6425 29.3567,90.9758 30.5,87.5 Z"/></g>
<g><path style="opacity:1" fill="#e4e6ec" d="M 56.5,99.5 C 57.675,99.281 58.675,99.6143 59.5,100.5C 58.5328,102.63 57.3662,104.63 56,106.5C 53.898,103.874 54.0646,101.541 56.5,99.5 Z"/></g>
<g><path style="opacity:1" fill="#a5acba" d="M 63.5,91.5 C 69.2214,93.348 69.5547,95.5147 64.5,98C 62.7412,98.7975 61.0745,98.6309 59.5,97.5C 61.2516,95.7541 62.5849,93.7541 63.5,91.5 Z"/></g>
<g><path style="opacity:1" fill="#afb9c7" d="M 61.5,86.5 C 61.9021,95.8817 57.2354,99.3817 47.5,97C 45.9926,96.1627 45.4926,94.9961 46,93.5C 47.0407,95.3115 48.2073,95.6448 49.5,94.5C 52.3952,94.4525 55.3952,93.6192 58.5,92C 60.607,90.7365 61.607,88.9032 61.5,86.5 Z"/></g>
<g><path style="opacity:1" fill="#7d7f82" d="M 82.5,90.5 C 85.8333,91.1667 89.1667,91.8333 92.5,92.5C 88.4862,92.6655 84.4862,92.4988 80.5,92C 81.0442,91.2828 81.7109,90.7828 82.5,90.5 Z"/></g>
<g><path style="opacity:1" fill="#b1b9c7" d="M 40.5,83.5 C 39.9569,83.56 39.6236,83.8933 39.5,84.5C 41.9,87.7589 43.2333,91.4256 43.5,95.5C 36.9948,94.6649 32.9948,90.9982 31.5,84.5C 32.9461,83.0598 34.7794,82.3932 37,82.5C 38.3847,82.5143 39.5514,82.8476 40.5,83.5 Z"/></g>
<g><path style="opacity:1" fill="#afb8c6" d="M 88.5,71.5 C 90.876,72.512 91.876,74.3454 91.5,77C 91.2693,79.9089 90.1026,82.4089 88,84.5C 82.5387,89.8149 76.0387,92.8149 68.5,93.5C 68.3505,92.448 68.5172,91.448 69,90.5C 73.2577,88.4184 75.7577,85.0851 76.5,80.5C 82.7638,80.5748 86.7638,77.5748 88.5,71.5 Z"/></g>
<g><path style="opacity:1" fill="#d0dcee" d="M 61.5,86.5 C 61.607,88.9032 60.607,90.7365 58.5,92C 55.3952,93.6192 52.3952,94.4525 49.5,94.5C 46.1819,91.1733 43.1819,87.5066 40.5,83.5C 39.5514,82.8476 38.3847,82.5143 37,82.5C 34.7794,82.3932 32.9461,83.0598 31.5,84.5C 30.596,85.209 30.2627,86.209 30.5,87.5C 29.3567,90.9758 29.1901,94.6425 30,98.5C 32.1144,99.9533 33.4478,101.953 34,104.5C 38.5091,108.346 43.3425,110.68 48.5,111.5C 54.5374,117.535 60.204,123.869 65.5,130.5C 67.4373,134.712 69.104,139.045 70.5,143.5C 72.0521,137.237 71.3855,131.237 68.5,125.5C 68.3284,124.508 68.6618,123.842 69.5,123.5C 72.1348,126.079 74.3015,129.079 76,132.5C 80.429,140.493 81.5956,148.826 79.5,157.5C 67.9447,172.288 52.6114,178.788 33.5,177C 26.719,175.105 20.0523,172.939 13.5,170.5C 11.4862,167.806 9.98616,164.806 9,161.5C 8.62972,138.161 8.96306,114.828 10,91.5C 12.047,85.0269 15.047,79.0269 19,73.5C 25.5,65.6667 32,57.8333 38.5,50C 48.0494,43.9813 58.3828,39.8147 69.5,37.5C 81.7598,39.5846 89.9264,46.5846 94,58.5C 95.3845,64.412 93.2178,68.0786 87.5,69.5C 84.9486,62.1007 80.282,56.2673 73.5,52C 72.5,51.3333 71.5,51.3333 70.5,52C 76.3333,55.8333 81.1667,60.6667 85,66.5C 85.6667,68.8333 85.6667,71.1667 85,73.5C 83.4808,77.8871 80.6475,79.2205 76.5,77.5C 72.9588,70.0734 67.7921,64.0734 61,59.5C 60.3333,60.1667 60.3333,60.8333 61,61.5C 67.6957,65.9077 72.1957,71.9077 74.5,79.5C 74.1845,85.8156 70.8511,89.1489 64.5,89.5C 63.3804,82.4303 60.0471,76.597 54.5,72C 52.6313,70.3983 50.6313,69.3983 48.5,69C 54.6467,73.6246 58.98,79.4579 61.5,86.5 Z"/></g>
<g><path style="opacity:1" fill="#362129" d="M 28.5,148.5 C 27.5,146.5 26.5,144.5 25.5,142.5C 25.5,140.833 25.5,139.167 25.5,137.5C 24.8297,133.149 23.9964,128.816 23,124.5C 22.1787,131.679 22.3454,138.679 23.5,145.5C 23.3071,155.957 27.3071,164.29 35.5,170.5C 35.8333,170.167 36.1667,169.833 36.5,169.5C 34.5347,166.264 32.868,162.93 31.5,159.5C 30.8505,157.565 30.5172,155.565 30.5,153.5C 33.8675,160.565 37.5341,167.565 41.5,174.5C 40.635,175.583 39.635,175.749 38.5,175C 34.3672,171.869 30.5338,168.369 27,164.5C 20.9046,151.821 18.9046,138.488 21,124.5C 21.3333,121.5 21.6667,118.5 22,115.5C 22.3076,114.692 22.8076,114.025 23.5,113.5C 25.4127,125.136 27.0794,136.802 28.5,148.5 Z"/></g>
<g><path style="opacity:1" fill="#56131f" d="M 25.5,142.5 C 26.5,144.5 27.5,146.5 28.5,148.5C 29.5375,149.93 30.2041,151.597 30.5,153.5C 30.5172,155.565 30.8505,157.565 31.5,159.5C 28.3457,154.378 26.3457,148.711 25.5,142.5 Z"/></g>
<g><path style="opacity:1" fill="#ba253f" d="M 25.5,137.5 C 25.5,139.167 25.5,140.833 25.5,142.5C 26.3457,148.711 28.3457,154.378 31.5,159.5C 32.868,162.93 34.5347,166.264 36.5,169.5C 36.1667,169.833 35.8333,170.167 35.5,170.5C 27.3071,164.29 23.3071,155.957 23.5,145.5C 23.335,142.15 23.5017,138.817 24,135.5C 24.2784,136.416 24.7784,137.082 25.5,137.5 Z"/></g>
<g><path style="opacity:1" fill="#341f27" d="M 36.5,110.5 C 37.7498,110.577 38.5831,111.244 39,112.5C 43.6074,128.489 49.1074,144.156 55.5,159.5C 55.1667,160.167 54.8333,160.833 54.5,161.5C 40.2057,147.627 34.2057,130.627 36.5,110.5 Z"/></g>
<g><path style="opacity:1" fill="#ae2540" d="M 37.5,117.5 C 42.2374,128.039 46.2374,139.039 49.5,150.5C 49.1667,151.167 48.8333,151.833 48.5,152.5C 41.3639,141.991 37.6972,130.324 37.5,117.5 Z"/></g>
<g><path style="opacity:1" fill="#912d43" d="M 25.5,137.5 C 24.7784,137.082 24.2784,136.416 24,135.5C 23.5017,138.817 23.335,142.15 23.5,145.5C 22.3454,138.679 22.1787,131.679 23,124.5C 23.9964,128.816 24.8297,133.149 25.5,137.5 Z"/></g>
<g><path style="opacity:1" fill="#373008" d="M 210.5,170.5 C 209.957,170.56 209.624,170.893 209.5,171.5C 213.867,179.573 214.534,187.907 211.5,196.5C 210.921,199.331 209.588,201.664 207.5,203.5C 207.167,203.5 206.833,203.5 206.5,203.5C 212.284,193.188 212.951,182.521 208.5,171.5C 208.711,169.576 209.377,169.243 210.5,170.5 Z"/></g>
<g><path style="opacity:1" fill="#182c2d" d="M 128.5,173.5 C 129.873,173.343 131.207,173.51 132.5,174C 131.288,175.107 131.621,175.607 133.5,175.5C 131.117,176.885 129.45,178.885 128.5,181.5C 119.593,184.841 116.593,191.174 119.5,200.5C 118.596,201.209 118.263,202.209 118.5,203.5C 118.167,203.5 117.833,203.5 117.5,203.5C 117.693,199.752 116.693,196.418 114.5,193.5C 114.443,192.391 114.11,191.391 113.5,190.5C 114.404,189.791 114.737,188.791 114.5,187.5C 118.788,182.166 124.121,178 130.5,175C 129.584,174.722 128.918,174.222 128.5,173.5 Z"/></g>
<g><path style="opacity:1" fill="#161e0b" d="M 128.5,181.5 C 140.274,183.365 144.107,190.031 140,201.5C 132.702,209.648 125.868,209.315 119.5,200.5C 116.593,191.174 119.593,184.841 128.5,181.5 Z"/></g>
<g><path style="opacity:1" fill="#1e1200" d="M 154.5,190.5 C 154.517,192.565 154.85,194.565 155.5,196.5C 155.5,197.167 155.5,197.833 155.5,198.5C 154.007,196.098 153.007,193.431 152.5,190.5C 152.336,187.813 152.503,185.146 153,182.5C 153.183,185.365 153.683,188.031 154.5,190.5 Z"/></g>
<g><path style="opacity:1" fill="#22383c" d="M 219.5,172.5 C 221.048,172.821 221.715,173.821 221.5,175.5C 220.21,176.058 219.377,177.058 219,178.5C 218.828,183.202 218.328,187.868 217.5,192.5C 216.803,186.021 216.469,179.354 216.5,172.5C 217.5,172.5 218.5,172.5 219.5,172.5 Z"/></g>
<g><path style="opacity:1" fill="#e6d628" d="M 166.5,167.5 C 166.938,167.435 167.272,167.601 167.5,168C 159.45,175.664 157.283,184.831 161,195.5C 168.647,209.401 179.814,213.234 194.5,207C 205.491,199.5 208.991,189.333 205,176.5C 202.955,173.577 200.788,170.743 198.5,168C 199.094,167.536 199.761,167.369 200.5,167.5C 202.042,168.301 203.708,168.634 205.5,168.5C 206.167,169.833 207.167,170.833 208.5,171.5C 212.951,182.521 212.284,193.188 206.5,203.5C 203.208,206.49 199.874,209.49 196.5,212.5C 196.167,212.5 195.833,212.5 195.5,212.5C 187.687,216.149 179.687,216.483 171.5,213.5C 164.083,209.751 158.75,204.085 155.5,196.5C 154.85,194.565 154.517,192.565 154.5,190.5C 153.749,183.361 155.083,176.694 158.5,170.5C 160.902,169.007 163.569,168.007 166.5,167.5 Z"/></g>
<g><path style="opacity:1" fill="#184544" d="M 146.5,207.5 C 136.77,208.424 127.104,209.758 117.5,211.5C 118.875,208.763 119.209,206.096 118.5,203.5C 118.263,202.209 118.596,201.209 119.5,200.5C 125.868,209.315 132.702,209.648 140,201.5C 144.107,190.031 140.274,183.365 128.5,181.5C 129.45,178.885 131.117,176.885 133.5,175.5C 137.454,174.619 141.454,173.952 145.5,173.5C 145.833,184.833 146.167,196.167 146.5,207.5 Z"/></g>
<g><path style="opacity:1" fill="#f6de16" d="M 134.5,184.5 C 135.933,186.958 136.933,189.625 137.5,192.5C 137.333,193.833 137.167,195.167 137,196.5C 134.709,195.689 132.875,196.523 131.5,199C 128.874,199.995 126.207,200.328 123.5,200C 122.029,196.679 121.363,193.179 121.5,189.5C 124.05,183.615 128.384,181.948 134.5,184.5 Z"/></g>
<g><path style="opacity:1" fill="#ebdb26" d="M 153.5,171.5 C 154.497,171.47 155.164,171.97 155.5,173C 151.709,178.484 150.709,184.317 152.5,190.5C 153.007,193.431 154.007,196.098 155.5,198.5C 155.704,200.685 156.37,202.685 157.5,204.5C 157.03,205.693 156.03,206.36 154.5,206.5C 153.5,206.333 152.5,206.167 151.5,206C 150.047,204.351 149.047,202.518 148.5,200.5C 147.996,191.135 147.996,181.801 148.5,172.5C 150.071,171.691 151.738,171.357 153.5,171.5 Z"/></g>
<g><path style="opacity:1" fill="#1a2116" d="M 219.5,172.5 C 218.5,172.5 217.5,172.5 216.5,172.5C 216.469,179.354 216.803,186.021 217.5,192.5C 218.328,187.868 218.828,183.202 219,178.5C 219.377,177.058 220.21,176.058 221.5,175.5C 221.5,176.167 221.833,176.5 222.5,176.5C 220.945,179.019 220.278,181.852 220.5,185C 220.644,189.21 221.144,193.376 222,197.5C 223.667,200.167 225.333,200.167 227,197.5C 230.053,193.046 230.886,188.379 229.5,183.5C 229.672,182.508 229.338,181.842 228.5,181.5C 227.7,179.427 226.367,177.76 224.5,176.5C 225.167,176.5 225.5,176.167 225.5,175.5C 232.766,181.048 234.266,188.048 230,196.5C 228.941,198.659 227.441,200.326 225.5,201.5C 224.619,203.304 223.286,204.804 221.5,206C 220.184,206.528 219.517,206.028 219.5,204.5C 221.196,204.315 222.529,203.481 223.5,202C 221.217,200.135 219.384,197.968 218,195.5C 217.502,198.482 217.335,201.482 217.5,204.5C 216.833,204.5 216.167,204.5 215.5,204.5C 215.74,193.469 215.407,182.469 214.5,171.5C 216.726,169.82 218.393,170.153 219.5,172.5 Z"/></g>
<g><path style="opacity:1" fill="#c8b833" d="M 222.5,176.5 C 223.167,176.5 223.833,176.5 224.5,176.5C 226.367,177.76 227.7,179.427 228.5,181.5C 226.355,180.152 224.188,179.818 222,180.5C 221.333,183.5 221.333,186.5 222,189.5C 228.155,192.807 230.655,190.807 229.5,183.5C 230.886,188.379 230.053,193.046 227,197.5C 225.333,200.167 223.667,200.167 222,197.5C 221.144,193.376 220.644,189.21 220.5,185C 220.278,181.852 220.945,179.019 222.5,176.5 Z"/></g>
<g><path style="opacity:1" fill="#f7e115" d="M 228.5,181.5 C 229.338,181.842 229.672,182.508 229.5,183.5C 230.655,190.807 228.155,192.807 222,189.5C 221.333,186.5 221.333,183.5 222,180.5C 224.188,179.818 226.355,180.152 228.5,181.5 Z"/></g>
<g><path style="opacity:1" fill="#c0b432" d="M 210.5,170.5 C 211.959,170.433 213.292,170.766 214.5,171.5C 215.407,182.469 215.74,193.469 215.5,204.5C 215.167,204.5 214.833,204.5 214.5,204.5C 214.817,201.428 214.484,198.428 213.5,195.5C 212.817,195.863 212.15,196.196 211.5,196.5C 214.534,187.907 213.867,179.573 209.5,171.5C 209.624,170.893 209.957,170.56 210.5,170.5 Z"/></g>
<g><path style="opacity:1" fill="#194141" d="M 219.5,204.5 C 218.833,204.5 218.167,204.5 217.5,204.5C 217.335,201.482 217.502,198.482 218,195.5C 219.384,197.968 221.217,200.135 223.5,202C 222.529,203.481 221.196,204.315 219.5,204.5 Z"/></g>
<g><path style="opacity:1" fill="#f2db1d" d="M 109.5,205.5 C 109.5,205.167 109.5,204.833 109.5,204.5C 109.02,201.315 109.686,198.481 111.5,196C 112.784,195.316 113.951,195.483 115,196.5C 117.139,200.293 116.972,203.96 114.5,207.5C 112.925,206.544 111.258,205.877 109.5,205.5 Z"/></g>
<g><path style="opacity:1" fill="#d3bf30" d="M 134.5,184.5 C 138.123,186.577 139.79,189.744 139.5,194C 139.226,203.275 134.559,206.942 125.5,205C 120.626,200.665 119.293,195.498 121.5,189.5C 121.363,193.179 122.029,196.679 123.5,200C 126.207,200.328 128.874,199.995 131.5,199C 132.875,196.523 134.709,195.689 137,196.5C 137.167,195.167 137.333,193.833 137.5,192.5C 136.933,189.625 135.933,186.958 134.5,184.5 Z"/></g>
<g><path style="opacity:1" fill="#e3d42b" d="M 176.5,165.5 C 177.434,166.568 177.768,167.901 177.5,169.5C 177.5,169.833 177.5,170.167 177.5,170.5C 168.466,174.562 164.633,181.562 166,191.5C 166.377,192.942 167.21,193.942 168.5,194.5C 170.418,199.627 174.085,202.627 179.5,203.5C 182.64,204.641 185.973,204.808 189.5,204C 190.056,203.617 190.389,203.117 190.5,202.5C 195.786,200.711 199.286,197.044 201,191.5C 201.667,188.5 201.667,185.5 201,182.5C 200.722,181.584 200.222,180.918 199.5,180.5C 199.155,177.802 197.822,175.802 195.5,174.5C 193.422,172.61 192.089,170.276 191.5,167.5C 191.5,166.833 191.833,166.5 192.5,166.5C 205.07,174.853 207.903,185.853 201,199.5C 188.926,211.432 176.926,211.432 165,199.5C 157.806,186.614 159.973,175.614 171.5,166.5C 173.117,165.962 174.784,165.629 176.5,165.5 Z"/></g>
<g><path style="opacity:1" fill="#e6d72b" d="M 214.5,204.5 C 211.654,206.462 208.654,207.129 205.5,206.5C 206.193,205.482 206.859,204.482 207.5,203.5C 209.588,201.664 210.921,199.331 211.5,196.5C 212.15,196.196 212.817,195.863 213.5,195.5C 214.484,198.428 214.817,201.428 214.5,204.5 Z"/></g>
<g><path style="opacity:1" fill="#392a06" d="M 192.5,166.5 C 192.5,166.167 192.5,165.833 192.5,165.5C 195.373,165.802 198.039,166.469 200.5,167.5C 199.761,167.369 199.094,167.536 198.5,168C 200.788,170.743 202.955,173.577 205,176.5C 208.991,189.333 205.491,199.5 194.5,207C 179.814,213.234 168.647,209.401 161,195.5C 157.283,184.831 159.45,175.664 167.5,168C 167.272,167.601 166.938,167.435 166.5,167.5C 167.919,166.549 169.585,166.216 171.5,166.5C 159.973,175.614 157.806,186.614 165,199.5C 176.926,211.432 188.926,211.432 201,199.5C 207.903,185.853 205.07,174.853 192.5,166.5 Z"/></g>
<g><path style="opacity:1" fill="#5c5626" d="M 195.5,174.5 C 197.822,175.802 199.155,177.802 199.5,180.5C 198.35,179.15 197.683,179.316 197.5,181C 198.394,184.776 198.728,188.61 198.5,192.5C 196.936,196.729 194.269,200.063 190.5,202.5C 190.389,203.117 190.056,203.617 189.5,204C 185.973,204.808 182.64,204.641 179.5,203.5C 177.651,202.407 175.984,201.074 174.5,199.5C 179.282,202.449 184.282,202.949 189.5,201C 190.942,200.623 191.942,199.79 192.5,198.5C 199.09,190.865 199.09,183.198 192.5,175.5C 192.369,174.761 192.536,174.094 193,173.5C 193.671,174.252 194.504,174.586 195.5,174.5 Z"/></g>
<g><path style="opacity:1" fill="#352a07" d="M 199.5,180.5 C 200.222,180.918 200.722,181.584 201,182.5C 201.667,185.5 201.667,188.5 201,191.5C 199.286,197.044 195.786,200.711 190.5,202.5C 194.269,200.063 196.936,196.729 198.5,192.5C 199.483,188.702 199.817,184.702 199.5,180.5 Z"/></g>
<g><path style="opacity:1" fill="#989d44" d="M 171.5,196.5 C 172.833,197.167 173.833,198.167 174.5,199.5C 172.5,199.5 171.5,198.5 171.5,196.5 Z"/></g>
<g><path style="opacity:1" fill="#332707" d="M 168.5,194.5 C 169.5,195.167 170.5,195.833 171.5,196.5C 171.5,198.5 172.5,199.5 174.5,199.5C 175.984,201.074 177.651,202.407 179.5,203.5C 174.085,202.627 170.418,199.627 168.5,194.5 Z"/></g>
<g><path style="opacity:1" fill="#9d9838" d="M 171.5,196.5 C 170.5,195.833 169.5,195.167 168.5,194.5C 166.366,187.523 167.532,181.19 172,175.5C 173.489,173.668 175.322,172.835 177.5,173C 169.248,179.134 167.248,186.967 171.5,196.5 Z"/></g>
<g><path style="opacity:1" fill="#ab9d53" d="M 199.5,180.5 C 199.817,184.702 199.483,188.702 198.5,192.5C 198.728,188.61 198.394,184.776 197.5,181C 197.683,179.316 198.35,179.15 199.5,180.5 Z"/></g>
<g><path style="opacity:1" fill="#f5de18" d="M 189.5,176.5 C 190.391,175.89 191.391,175.557 192.5,175.5C 199.09,183.198 199.09,190.865 192.5,198.5C 177.535,203.446 170.368,198.112 171,182.5C 172.3,179.568 174.3,177.234 177,175.5C 177.494,177.134 177.66,178.801 177.5,180.5C 180.167,180.5 182.833,180.5 185.5,180.5C 185.5,179.5 185.5,178.5 185.5,177.5C 187.099,177.768 188.432,177.434 189.5,176.5 Z"/></g>
<g><path style="opacity:1" fill="#d72840" d="M 179.5,168.5 C 181.099,168.232 182.432,168.566 183.5,169.5C 183.5,170.833 183.5,172.167 183.5,173.5C 183.5,174.5 183.5,175.5 183.5,176.5C 182.817,178.176 181.483,178.843 179.5,178.5C 179.5,175.167 179.5,171.833 179.5,168.5 Z"/></g>
<g><path style="opacity:1" fill="#362a0b" d="M 177.5,170.5 C 178.167,173.167 178.833,175.833 179.5,178.5C 181.483,178.843 182.817,178.176 183.5,176.5C 183.833,176.5 184.167,176.5 184.5,176.5C 186.167,176.5 187.833,176.5 189.5,176.5C 188.432,177.434 187.099,177.768 185.5,177.5C 185.5,178.5 185.5,179.5 185.5,180.5C 182.833,180.5 180.167,180.5 177.5,180.5C 177.66,178.801 177.494,177.134 177,175.5C 174.3,177.234 172.3,179.568 171,182.5C 170.368,198.112 177.535,203.446 192.5,198.5C 191.942,199.79 190.942,200.623 189.5,201C 184.282,202.949 179.282,202.449 174.5,199.5C 173.833,198.167 172.833,197.167 171.5,196.5C 167.248,186.967 169.248,179.134 177.5,173C 175.322,172.835 173.489,173.668 172,175.5C 167.532,181.19 166.366,187.523 168.5,194.5C 167.21,193.942 166.377,192.942 166,191.5C 164.633,181.562 168.466,174.562 177.5,170.5 Z"/></g>
<g><path style="opacity:1" fill="#4d1209" d="M 187.5,166.5 C 188.959,166.433 190.292,166.766 191.5,167.5C 192.089,170.276 193.422,172.61 195.5,174.5C 194.504,174.586 193.671,174.252 193,173.5C 192.536,174.094 192.369,174.761 192.5,175.5C 191.391,175.557 190.391,175.89 189.5,176.5C 187.833,176.5 186.167,176.5 184.5,176.5C 189.946,176.532 191.78,173.865 190,168.5C 186.399,167.18 182.899,167.18 179.5,168.5C 179.5,171.833 179.5,175.167 179.5,178.5C 178.833,175.833 178.167,173.167 177.5,170.5C 177.5,170.167 177.5,169.833 177.5,169.5C 178.404,168.791 178.737,167.791 178.5,166.5C 181.5,166.5 184.5,166.5 187.5,166.5 Z"/></g>
<g><path style="opacity:1" fill="#67201d" d="M 183.5,169.5 C 184.833,169.5 186.167,169.5 187.5,169.5C 187.833,172.5 186.5,173.833 183.5,173.5C 183.5,172.167 183.5,170.833 183.5,169.5 Z"/></g>
<g><path style="opacity:1" fill="#af304a" d="M 179.5,168.5 C 182.899,167.18 186.399,167.18 190,168.5C 191.78,173.865 189.946,176.532 184.5,176.5C 184.167,176.5 183.833,176.5 183.5,176.5C 183.5,175.5 183.5,174.5 183.5,173.5C 186.5,173.833 187.833,172.5 187.5,169.5C 186.167,169.5 184.833,169.5 183.5,169.5C 182.432,168.566 181.099,168.232 179.5,168.5 Z"/></g>
<g><path style="opacity:1" fill="#242311" d="M 111.5,190.5 C 112.167,190.5 112.833,190.5 113.5,190.5C 114.11,191.391 114.443,192.391 114.5,193.5C 112.019,193.323 110.186,194.323 109,196.5C 108.199,199.367 108.366,202.034 109.5,204.5C 109.5,204.833 109.5,205.167 109.5,205.5C 114.274,212.753 116.94,212.086 117.5,203.5C 117.833,203.5 118.167,203.5 118.5,203.5C 119.209,206.096 118.875,208.763 117.5,211.5C 116.167,211.5 114.833,211.5 113.5,211.5C 107.553,208.263 105.387,203.263 107,196.5C 108.388,194.298 109.888,192.298 111.5,190.5 Z"/></g>
<g><path style="opacity:1" fill="#b9af43" d="M 114.5,193.5 C 116.693,196.418 117.693,199.752 117.5,203.5C 116.94,212.086 114.274,212.753 109.5,205.5C 111.258,205.877 112.925,206.544 114.5,207.5C 116.972,203.96 117.139,200.293 115,196.5C 113.951,195.483 112.784,195.316 111.5,196C 109.686,198.481 109.02,201.315 109.5,204.5C 108.366,202.034 108.199,199.367 109,196.5C 110.186,194.323 112.019,193.323 114.5,193.5 Z"/></g>
<g><path style="opacity:1" fill="#1d1f12" d="M 185.5,160.5 C 186.167,160.5 186.833,160.5 187.5,160.5C 186.402,161.397 186.402,162.23 187.5,163C 193.223,164.111 198.889,165.278 204.5,166.5C 204.833,167.167 205.167,167.833 205.5,168.5C 203.708,168.634 202.042,168.301 200.5,167.5C 198.039,166.469 195.373,165.802 192.5,165.5C 188.901,164.656 185.234,164.323 181.5,164.5C 179.585,164.216 177.919,164.549 176.5,165.5C 174.784,165.629 173.117,165.962 171.5,166.5C 169.585,166.216 167.919,166.549 166.5,167.5C 163.569,168.007 160.902,169.007 158.5,170.5C 156.585,170.216 154.919,170.549 153.5,171.5C 151.738,171.357 150.071,171.691 148.5,172.5C 147.996,181.801 147.996,191.135 148.5,200.5C 148.5,202.833 148.5,205.167 148.5,207.5C 152.796,208.463 157.129,208.629 161.5,208C 160.295,206.624 158.962,205.458 157.5,204.5C 156.37,202.685 155.704,200.685 155.5,198.5C 155.5,197.833 155.5,197.167 155.5,196.5C 158.75,204.085 164.083,209.751 171.5,213.5C 168.116,213.136 165.116,211.803 162.5,209.5C 161.893,209.624 161.56,209.957 161.5,210.5C 156.533,211.038 151.866,210.371 147.5,208.5C 147.5,207.833 147.167,207.5 146.5,207.5C 146.167,196.167 145.833,184.833 145.5,173.5C 141.454,173.952 137.454,174.619 133.5,175.5C 131.621,175.607 131.288,175.107 132.5,174C 131.207,173.51 129.873,173.343 128.5,173.5C 127.833,173.167 127.167,172.833 126.5,172.5C 126.328,171.508 126.662,170.842 127.5,170.5C 131.943,172.466 136.61,172.966 141.5,172C 154.721,168.361 168.055,165.361 181.5,163C 182.984,162.338 184.317,161.504 185.5,160.5 Z"/></g>
<g><path style="opacity:1" fill="#c4bf41" d="M 148.5,200.5 C 149.047,202.518 150.047,204.351 151.5,206C 152.5,206.167 153.5,206.333 154.5,206.5C 156.03,206.36 157.03,205.693 157.5,204.5C 158.962,205.458 160.295,206.624 161.5,208C 157.129,208.629 152.796,208.463 148.5,207.5C 148.5,205.167 148.5,202.833 148.5,200.5 Z"/></g>
<g><path style="opacity:1" fill="#968f43" d="M 181.5,164.5 C 185.234,164.323 188.901,164.656 192.5,165.5C 192.5,165.833 192.5,166.167 192.5,166.5C 191.833,166.5 191.5,166.833 191.5,167.5C 190.292,166.766 188.959,166.433 187.5,166.5C 185.5,165.833 183.5,165.167 181.5,164.5 Z"/></g>
<g><path style="opacity:1" fill="#1d1a0d" d="M 206.5,203.5 C 206.833,203.5 207.167,203.5 207.5,203.5C 206.859,204.482 206.193,205.482 205.5,206.5C 208.654,207.129 211.654,206.462 214.5,204.5C 214.833,204.5 215.167,204.5 215.5,204.5C 215.056,206.113 214.056,207.28 212.5,208C 207.007,209.204 201.673,210.704 196.5,212.5C 199.874,209.49 203.208,206.49 206.5,203.5 Z"/></g>
<g><path style="opacity:1" fill="#152038" d="M 225.5,201.5 C 225.394,204.615 226.394,207.281 228.5,209.5C 227.624,209.369 226.957,209.702 226.5,210.5C 226.977,211.931 227.643,213.264 228.5,214.5C 230.366,213.437 230.866,214.104 230,216.5C 227.047,217.751 224.047,217.751 221,216.5C 220.5,216.833 220,217.167 219.5,217.5C 221.977,218.88 221.977,219.88 219.5,220.5C 214.957,219.659 211.29,220.992 208.5,224.5C 208.833,225.167 209.167,225.833 209.5,226.5C 208.469,227.7 207.635,229.034 207,230.5C 206.667,230.167 206.333,229.833 206,229.5C 206.316,233.137 204.982,235.804 202,237.5C 200.276,243.659 198.776,249.826 197.5,256C 184.324,256.377 171.324,255.043 158.5,252C 157.856,246.884 157.189,241.718 156.5,236.5C 156.124,239.411 154.624,241.411 152,242.5C 149.957,240.791 148.123,238.791 146.5,236.5C 145.311,235.571 143.978,235.238 142.5,235.5C 142.649,234.448 142.483,233.448 142,232.5C 139.087,229.913 135.92,227.746 132.5,226C 129.865,224.039 128.031,221.539 127,218.5C 126.064,223.346 123.564,224.513 119.5,222C 120.973,221.29 121.64,220.124 121.5,218.5C 119.43,218.449 117.597,219.115 116,220.5C 114.97,220.164 114.47,219.497 114.5,218.5C 117.084,217.952 118.084,216.285 117.5,213.5C 121.202,213.421 124.868,213.754 128.5,214.5C 131.167,213.167 133.833,211.833 136.5,210.5C 139.326,211.985 142.326,212.985 145.5,213.5C 145.773,211.549 145.107,210.049 143.5,209C 144.793,208.51 146.127,208.343 147.5,208.5C 151.866,210.371 156.533,211.038 161.5,210.5C 160.817,212.176 159.483,212.843 157.5,212.5C 157.328,214.492 157.995,216.158 159.5,217.5C 162.167,218.833 164.833,218.833 167.5,217.5C 166.067,215.878 164.401,214.545 162.5,213.5C 163,213.167 163.5,212.833 164,212.5C 166.688,214.385 169.521,216.051 172.5,217.5C 173.167,217.167 173.833,216.833 174.5,216.5C 176.776,217.213 179.109,217.713 181.5,218C 179.866,218.494 178.199,218.66 176.5,218.5C 176.5,219.5 176.5,220.5 176.5,221.5C 180.555,221.824 184.555,221.491 188.5,220.5C 186.78,219.066 184.78,218.233 182.5,218C 186.567,217.997 190.567,217.83 194.5,217.5C 194.579,215.872 194.912,214.205 195.5,212.5C 195.833,212.5 196.167,212.5 196.5,212.5C 201.673,210.704 207.007,209.204 212.5,208C 214.056,207.28 215.056,206.113 215.5,204.5C 216.167,204.5 216.833,204.5 217.5,204.5C 218.167,204.5 218.833,204.5 219.5,204.5C 219.517,206.028 220.184,206.528 221.5,206C 223.286,204.804 224.619,203.304 225.5,201.5 Z"/></g>
<g><path style="opacity:1" fill="#17202d" d="M 171.5,213.5 C 179.687,216.483 187.687,216.149 195.5,212.5C 194.912,214.205 194.579,215.872 194.5,217.5C 190.567,217.83 186.567,217.997 182.5,218C 184.78,218.233 186.78,219.066 188.5,220.5C 184.555,221.491 180.555,221.824 176.5,221.5C 176.5,220.5 176.5,219.5 176.5,218.5C 178.199,218.66 179.866,218.494 181.5,218C 179.109,217.713 176.776,217.213 174.5,216.5C 173.833,216.833 173.167,217.167 172.5,217.5C 169.521,216.051 166.688,214.385 164,212.5C 163.5,212.833 163,213.167 162.5,213.5C 164.401,214.545 166.067,215.878 167.5,217.5C 164.833,218.833 162.167,218.833 159.5,217.5C 157.995,216.158 157.328,214.492 157.5,212.5C 159.483,212.843 160.817,212.176 161.5,210.5C 161.56,209.957 161.893,209.624 162.5,209.5C 165.116,211.803 168.116,213.136 171.5,213.5 Z"/></g>
<g><path style="opacity:1" fill="#d0dcef" d="M 291.5,309.5 C 288.624,309.757 285.957,308.757 283.5,306.5C 280.835,303.665 278.335,300.665 276,297.5C 275.661,294.12 275.161,290.787 274.5,287.5C 274.5,286.833 274.5,286.167 274.5,285.5C 274.119,284.069 273.119,283.236 271.5,283C 273.382,282.802 275.048,282.302 276.5,281.5C 280.451,278.906 281.284,275.573 279,271.5C 278.39,278.761 274.557,281.261 267.5,279C 260.571,274.075 254.238,268.408 248.5,262C 239.215,255.771 230.382,248.938 222,241.5C 222.121,244.664 223.621,247.164 226.5,249C 239.153,255.847 250.153,264.847 259.5,276C 261.717,277.723 264.05,279.223 266.5,280.5C 266.631,281.376 266.298,282.043 265.5,282.5C 259.53,281.602 253.53,280.769 247.5,280C 237.751,274.298 227.751,268.964 217.5,264C 214.37,261.872 211.537,259.372 209,256.5C 207.971,252.427 207.138,248.427 206.5,244.5C 208.288,239.193 210.788,234.193 214,229.5C 216.063,227.266 218.229,225.266 220.5,223.5C 224.132,220.199 228.465,218.866 233.5,219.5C 252.687,222.511 268.854,231.177 282,245.5C 289.128,256.102 293.794,267.769 296,280.5C 297.139,283.583 298.472,286.583 300,289.5C 300.667,292.5 300.667,295.5 300,298.5C 297.158,302.197 294.325,305.863 291.5,309.5 Z"/></g>
<g><path style="opacity:1" fill="#d0dcef" d="M 137.5,236.5 C 142.105,240.602 146.605,244.936 151,249.5C 152.705,251.577 153.872,253.91 154.5,256.5C 153.531,257.309 152.698,258.309 152,259.5C 151.667,259.167 151.333,258.833 151,258.5C 150.691,259.766 150.191,260.933 149.5,262C 145.316,265.348 140.983,268.514 136.5,271.5C 133.134,276.898 130.301,282.565 128,288.5C 122.884,294.452 117.384,299.786 111.5,304.5C 109.549,305.716 108.049,307.382 107,309.5C 106.667,313.5 106.333,317.5 106,321.5C 102.171,325.492 97.6709,327.992 92.5,329C 91.646,327.978 90.646,327.145 89.5,326.5C 88.7025,326.957 88.3691,327.624 88.5,328.5C 84.8333,327.833 81.1667,327.167 77.5,326.5C 72.9457,322.088 71.4457,316.754 73,310.5C 77.0538,305.076 79.3871,299.076 80,292.5C 77.368,299.097 74.2014,305.431 70.5,311.5C 69.7987,309.29 68.4653,307.456 66.5,306C 67.056,305.617 67.3893,305.117 67.5,304.5C 69.6464,302.259 71.1464,299.592 72,296.5C 72.3333,284.5 72.6667,272.5 73,260.5C 81.7569,246.533 93.2569,235.366 107.5,227C 110.5,226.333 113.5,226.333 116.5,227C 110.488,230.001 105.322,234.167 101,239.5C 96.2794,245.221 91.946,251.221 88,257.5C 85.9059,265.391 85.2392,273.391 86,281.5C 88,284.167 90,286.833 92,289.5C 91.6263,286.725 90.6263,284.058 89,281.5C 88.3333,275.167 88.3333,268.833 89,262.5C 94.4554,250.357 102.289,239.857 112.5,231C 117.013,228.246 121.68,227.913 126.5,230C 130.524,231.674 134.191,233.841 137.5,236.5 Z"/></g>
<g><path style="opacity:1" fill="#1e2632" d="M 276.5,281.5 C 273.061,281.747 269.728,281.414 266.5,280.5C 264.05,279.223 261.717,277.723 259.5,276C 250.153,264.847 239.153,255.847 226.5,249C 223.621,247.164 222.121,244.664 222,241.5C 230.382,248.938 239.215,255.771 248.5,262C 254.238,268.408 260.571,274.075 267.5,279C 274.557,281.261 278.39,278.761 279,271.5C 281.284,275.573 280.451,278.906 276.5,281.5 Z"/></g>
<g><path style="opacity:1" fill="#161f32" d="M 114.5,218.5 C 114.47,219.497 114.97,220.164 116,220.5C 117.597,219.115 119.43,218.449 121.5,218.5C 121.64,220.124 120.973,221.29 119.5,222C 123.564,224.513 126.064,223.346 127,218.5C 128.031,221.539 129.865,224.039 132.5,226C 135.92,227.746 139.087,229.913 142,232.5C 142.483,233.448 142.649,234.448 142.5,235.5C 143.978,235.238 145.311,235.571 146.5,236.5C 148.123,238.791 149.957,240.791 152,242.5C 154.624,241.411 156.124,239.411 156.5,236.5C 157.189,241.718 157.856,246.884 158.5,252C 171.324,255.043 184.324,256.377 197.5,256C 198.776,249.826 200.276,243.659 202,237.5C 204.982,235.804 206.316,233.137 206,229.5C 206.333,229.833 206.667,230.167 207,230.5C 207.635,229.034 208.469,227.7 209.5,226.5C 209.167,225.833 208.833,225.167 208.5,224.5C 211.29,220.992 214.957,219.659 219.5,220.5C 217.871,222.196 218.204,223.196 220.5,223.5C 218.229,225.266 216.063,227.266 214,229.5C 210.788,234.193 208.288,239.193 206.5,244.5C 203.769,249.066 202.103,254.066 201.5,259.5C 200.849,260.091 200.182,260.757 199.5,261.5C 188.231,257.695 176.897,257.528 165.5,261C 165.167,261.333 164.833,261.667 164.5,262C 165.448,262.483 166.448,262.649 167.5,262.5C 165.972,263.309 164.306,263.976 162.5,264.5C 160.361,263.842 158.361,262.842 156.5,261.5C 156.598,259.447 155.931,257.78 154.5,256.5C 153.872,253.91 152.705,251.577 151,249.5C 146.605,244.936 142.105,240.602 137.5,236.5C 137.131,234.559 136.464,232.725 135.5,231C 128.891,228.436 122.225,225.936 115.5,223.5C 114.5,222.167 113.5,220.833 112.5,219.5C 112.957,218.702 113.624,218.369 114.5,218.5 Z"/></g>
<g><path style="opacity:1" fill="#1e2531" d="M 147.5,250.5 C 148.525,250.897 148.692,251.563 148,252.5C 135.878,262.285 125.545,273.618 117,286.5C 114.874,289.909 112.041,291.242 108.5,290.5C 111.433,289.07 113.933,287.07 116,284.5C 124.613,271.388 135.113,260.055 147.5,250.5 Z"/></g>
<g><path style="opacity:1" fill="#b5bdce" d="M 206.5,244.5 C 207.138,248.427 207.971,252.427 209,256.5C 211.537,259.372 214.37,261.872 217.5,264C 227.751,268.964 237.751,274.298 247.5,280C 253.53,280.769 259.53,281.602 265.5,282.5C 266.298,282.043 266.631,281.376 266.5,280.5C 269.728,281.414 273.061,281.747 276.5,281.5C 275.048,282.302 273.382,282.802 271.5,283C 273.119,283.236 274.119,284.069 274.5,285.5C 273.883,285.389 273.383,285.056 273,284.5C 272.188,288.689 272.355,292.689 273.5,296.5C 276.172,301.177 279.505,304.51 283.5,306.5C 285.957,308.757 288.624,309.757 291.5,309.5C 291.435,309.938 291.601,310.272 292,310.5C 293.019,309.313 294.186,308.313 295.5,307.5C 295.833,308 296.167,308.5 296.5,309C 292.456,320.451 287.623,331.617 282,342.5C 280.139,347.543 280.139,352.543 282,357.5C 284.04,359.37 285.873,361.37 287.5,363.5C 281.679,363.468 275.679,363.968 269.5,365C 262.048,366.471 256.214,370.304 252,376.5C 250.711,379.351 250.211,382.351 250.5,385.5C 245.745,382.04 240.912,378.707 236,375.5C 235.333,370.833 235.333,366.167 236,361.5C 237.97,358.032 240.136,354.699 242.5,351.5C 243.57,356.759 244.57,356.759 245.5,351.5C 245.17,348.676 244.336,346.009 243,343.5C 239.089,338.678 235.422,333.678 232,328.5C 231.333,321.833 231.333,315.167 232,308.5C 234.618,303.549 238.284,299.549 243,296.5C 243.304,294.559 244.137,292.893 245.5,291.5C 244.91,290.201 243.91,289.368 242.5,289C 222.466,287.773 208.799,277.939 201.5,259.5C 202.103,254.066 203.769,249.066 206.5,244.5 Z"/></g>
<g><path style="opacity:1" fill="#b4bdce" d="M 154.5,256.5 C 155.931,257.78 156.598,259.447 156.5,261.5C 156.498,265.511 155.332,269.178 153,272.5C 145.927,284.14 137.761,294.973 128.5,305C 123.277,305.695 118.777,307.862 115,311.5C 114.333,312.167 114.333,312.833 115,313.5C 115.689,312.643 116.522,311.977 117.5,311.5C 119.585,330.995 113.085,346.995 98,359.5C 95.6078,362.228 93.6078,365.228 92,368.5C 90.9764,373.452 92.4764,377.452 96.5,380.5C 79.0935,377.09 62.0935,378.423 45.5,384.5C 48.1043,381.12 49.7709,377.287 50.5,373C 50.1667,372.167 49.8333,371.333 49.5,370.5C 48.7022,372.078 48.2022,373.744 48,375.5C 47.0355,370.756 48.3688,366.756 52,363.5C 51.6649,352.48 50.8315,341.48 49.5,330.5C 49.4465,325.101 49.9465,319.767 51,314.5C 56.0411,307.792 62.0411,302.125 69,297.5C 69.0442,299.76 68.2108,301.76 66.5,303.5C 66.6236,304.107 66.9569,304.44 67.5,304.5C 67.3893,305.117 67.056,305.617 66.5,306C 68.4653,307.456 69.7987,309.29 70.5,311.5C 69.623,318.078 71.7896,323.411 77,327.5C 77.3988,327.272 77.5654,326.938 77.5,326.5C 81.1667,327.167 84.8333,327.833 88.5,328.5C 90.5806,329.623 92.7473,330.623 95,331.5C 99.4993,329.584 103.499,326.917 107,323.5C 108.204,319.284 108.87,314.951 109,310.5C 109.774,308.061 111.274,306.227 113.5,305C 112.906,304.536 112.239,304.369 111.5,304.5C 117.384,299.786 122.884,294.452 128,288.5C 130.301,282.565 133.134,276.898 136.5,271.5C 140.983,268.514 145.316,265.348 149.5,262C 150.191,260.933 150.691,259.766 151,258.5C 151.333,258.833 151.667,259.167 152,259.5C 152.698,258.309 153.531,257.309 154.5,256.5 Z"/></g>
<g><path style="opacity:1" fill="#1f222a" d="M 228.5,209.5 C 230.336,212.168 232.669,214.334 235.5,216C 253.862,221.427 270.028,230.594 284,243.5C 288.613,250.325 292.28,257.658 295,265.5C 297.134,275.202 299.634,284.702 302.5,294C 303.039,297.833 301.872,301 299,303.5C 298.454,309.351 297.121,315.018 295,320.5C 291.273,328.955 287.273,337.288 283,345.5C 281.682,348.406 281.348,351.406 282,354.5C 292.317,365.854 304.817,373.354 319.5,377C 324.756,381.924 324.756,386.924 319.5,392C 311.731,392.928 304.064,394.261 296.5,396C 292.29,396.738 288.124,396.572 284,395.5C 274.85,399.168 265.683,399.334 256.5,396C 251.156,388.154 244.156,382.321 235.5,378.5C 234.808,377.975 234.308,377.308 234,376.5C 233.333,371.167 233.333,365.833 234,360.5C 237.155,356.355 239.655,351.855 241.5,347C 237.797,341.098 233.964,335.264 230,329.5C 228.086,321.856 228.086,314.19 230,306.5C 233,302.167 236.667,298.5 241,295.5C 241.667,294.167 241.667,292.833 241,291.5C 223.343,289.837 210.343,281.17 202,265.5C 200.068,263.962 197.901,262.795 195.5,262C 186.119,261.22 176.786,261.387 167.5,262.5C 166.448,262.649 165.448,262.483 164.5,262C 164.833,261.667 165.167,261.333 165.5,261C 176.897,257.528 188.231,257.695 199.5,261.5C 200.182,260.757 200.849,260.091 201.5,259.5C 208.799,277.939 222.466,287.773 242.5,289C 243.91,289.368 244.91,290.201 245.5,291.5C 244.137,292.893 243.304,294.559 243,296.5C 238.284,299.549 234.618,303.549 232,308.5C 231.333,315.167 231.333,321.833 232,328.5C 235.422,333.678 239.089,338.678 243,343.5C 244.336,346.009 245.17,348.676 245.5,351.5C 244.57,356.759 243.57,356.759 242.5,351.5C 240.136,354.699 237.97,358.032 236,361.5C 235.333,366.167 235.333,370.833 236,375.5C 240.912,378.707 245.745,382.04 250.5,385.5C 253.05,388.768 255.717,391.935 258.5,395C 266.702,397.299 274.702,396.799 282.5,393.5C 288.263,387.484 287.596,382.318 280.5,378C 274.306,376.289 269.14,377.789 265,382.5C 265.027,380.583 265.861,378.916 267.5,377.5C 266.975,376.808 266.308,376.308 265.5,376C 271.067,375.715 276.734,375.715 282.5,376C 283.665,377.084 284.998,377.917 286.5,378.5C 293.986,377.54 301.32,376.873 308.5,376.5C 301.314,372.41 294.314,368.077 287.5,363.5C 285.873,361.37 284.04,359.37 282,357.5C 280.139,352.543 280.139,347.543 282,342.5C 287.623,331.617 292.456,320.451 296.5,309C 296.167,308.5 295.833,308 295.5,307.5C 294.186,308.313 293.019,309.313 292,310.5C 291.601,310.272 291.435,309.938 291.5,309.5C 294.325,305.863 297.158,302.197 300,298.5C 300.667,295.5 300.667,292.5 300,289.5C 298.472,286.583 297.139,283.583 296,280.5C 293.794,267.769 289.128,256.102 282,245.5C 268.854,231.177 252.687,222.511 233.5,219.5C 228.465,218.866 224.132,220.199 220.5,223.5C 218.204,223.196 217.871,222.196 219.5,220.5C 221.977,219.88 221.977,218.88 219.5,217.5C 220,217.167 220.5,216.833 221,216.5C 224.047,217.751 227.047,217.751 230,216.5C 230.866,214.104 230.366,213.437 228.5,214.5C 227.643,213.264 226.977,211.931 226.5,210.5C 226.957,209.702 227.624,209.369 228.5,209.5 Z"/></g>
<g><path style="opacity:1" fill="#ccd6e7" d="M 287.5,379.5 C 296.846,377.681 300.679,381.348 299,390.5C 295.34,394.367 290.84,395.534 285.5,394C 288.638,389.531 289.305,384.698 287.5,379.5 Z"/></g>
<g><path style="opacity:1" fill="#b0b5bf" d="M 319.5,380.5 C 322.266,383.962 321.932,387.295 318.5,390.5C 318.167,390.333 317.833,390.167 317.5,390C 319.227,387.096 319.893,383.93 319.5,380.5 Z"/></g>
<g><path style="opacity:1" fill="#cfd6e7" d="M 309.5,379.5 C 312.143,378.021 314.643,378.354 317,380.5C 318.194,384.919 317.028,388.419 313.5,391C 312.056,391.781 310.723,391.614 309.5,390.5C 311.466,387.451 311.966,384.118 311,380.5C 310.617,379.944 310.117,379.611 309.5,379.5 Z"/></g>
<g><path style="opacity:1" fill="#c8d3e4" d="M 300.5,378.5 C 308.156,378.315 310.656,381.982 308,389.5C 305.702,392.431 302.869,393.431 299.5,392.5C 301.743,387.978 302.076,383.311 300.5,378.5 Z"/></g>
<g><path style="opacity:1" fill="#cfdaec" d="M 287.5,363.5 C 294.314,368.077 301.314,372.41 308.5,376.5C 301.32,376.873 293.986,377.54 286.5,378.5C 284.998,377.917 283.665,377.084 282.5,376C 276.734,375.715 271.067,375.715 265.5,376C 266.308,376.308 266.975,376.808 267.5,377.5C 265.861,378.916 265.027,380.583 265,382.5C 269.14,377.789 274.306,376.289 280.5,378C 287.596,382.318 288.263,387.484 282.5,393.5C 274.702,396.799 266.702,397.299 258.5,395C 255.717,391.935 253.05,388.768 250.5,385.5C 250.211,382.351 250.711,379.351 252,376.5C 256.214,370.304 262.048,366.471 269.5,365C 275.679,363.968 281.679,363.468 287.5,363.5 Z"/></g>
<g><path style="opacity:1" fill="#1a2230" d="M 274.5,287.5 C 275.161,290.787 275.661,294.12 276,297.5C 278.335,300.665 280.835,303.665 283.5,306.5C 279.505,304.51 276.172,301.177 273.5,296.5C 273.19,293.287 273.523,290.287 274.5,287.5 Z"/></g>
<g><path style="opacity:1" fill="#646e7a" d="M 274.5,285.5 C 274.5,286.167 274.5,286.833 274.5,287.5C 273.523,290.287 273.19,293.287 273.5,296.5C 272.355,292.689 272.188,288.689 273,284.5C 273.383,285.056 273.883,285.389 274.5,285.5 Z"/></g>
<g><path style="opacity:1" fill="#21252e" d="M 146.5,207.5 C 147.167,207.5 147.5,207.833 147.5,208.5C 146.127,208.343 144.793,208.51 143.5,209C 145.107,210.049 145.773,211.549 145.5,213.5C 142.326,212.985 139.326,211.985 136.5,210.5C 133.833,211.833 131.167,213.167 128.5,214.5C 124.868,213.754 121.202,213.421 117.5,213.5C 118.084,216.285 117.084,217.952 114.5,218.5C 113.624,218.369 112.957,218.702 112.5,219.5C 113.5,220.833 114.5,222.167 115.5,223.5C 122.225,225.936 128.891,228.436 135.5,231C 136.464,232.725 137.131,234.559 137.5,236.5C 134.191,233.841 130.524,231.674 126.5,230C 121.68,227.913 117.013,228.246 112.5,231C 102.289,239.857 94.4554,250.357 89,262.5C 88.3333,268.833 88.3333,275.167 89,281.5C 90.6263,284.058 91.6263,286.725 92,289.5C 90,286.833 88,284.167 86,281.5C 85.2392,273.391 85.9059,265.391 88,257.5C 91.946,251.221 96.2794,245.221 101,239.5C 105.322,234.167 110.488,230.001 116.5,227C 113.5,226.333 110.5,226.333 107.5,227C 93.2569,235.366 81.7569,246.533 73,260.5C 72.6667,272.5 72.3333,284.5 72,296.5C 71.1464,299.592 69.6464,302.259 67.5,304.5C 66.9569,304.44 66.6236,304.107 66.5,303.5C 68.2108,301.76 69.0442,299.76 69,297.5C 62.0411,302.125 56.0411,307.792 51,314.5C 49.9465,319.767 49.4465,325.101 49.5,330.5C 50.8315,341.48 51.6649,352.48 52,363.5C 48.3688,366.756 47.0355,370.756 48,375.5C 48.2022,373.744 48.7022,372.078 49.5,370.5C 49.8333,371.333 50.1667,372.167 50.5,373C 49.7709,377.287 48.1043,381.12 45.5,384.5C 43.5305,386.647 41.6971,388.98 40,391.5C 39.2088,397.296 39.7088,402.963 41.5,408.5C 46.1292,409.481 50.7959,409.648 55.5,409C 62.2143,406.007 63.2143,401.674 58.5,396C 54.9984,395.718 51.6651,395.551 48.5,395.5C 52.8333,392.833 57.1667,392.833 61.5,395.5C 64.1217,399.368 64.1217,403.202 61.5,407C 72.0183,411.136 76.8517,407.636 76,396.5C 72.4756,392.926 68.6423,392.593 64.5,395.5C 64.1667,395.167 63.8333,394.833 63.5,394.5C 69.0021,390.166 73.8354,390.833 78,396.5C 78.5787,400.203 78.412,403.869 77.5,407.5C 82.1795,407.625 86.3462,406.291 90,403.5C 91.2272,399.409 90.3939,395.909 87.5,393C 83.9984,392.718 80.6651,392.551 77.5,392.5C 82.9035,389.34 87.7368,390.007 92,394.5C 92.6067,398.537 92.44,402.537 91.5,406.5C 100.261,406.913 103.761,402.913 102,394.5C 101.28,392.944 100.113,391.944 98.5,391.5C 96.5,390.833 94.5,390.167 92.5,389.5C 100.279,387.869 104.612,390.869 105.5,398.5C 105.635,400.808 104.969,402.808 103.5,404.5C 110.493,406.645 116.659,405.311 122,400.5C 124.09,391.927 120.756,387.26 112,386.5C 108.732,386.913 105.566,387.413 102.5,388C 103.167,387.333 103.833,386.667 104.5,386C 101.631,384.404 98.9639,382.57 96.5,380.5C 92.4764,377.452 90.9764,373.452 92,368.5C 93.6078,365.228 95.6078,362.228 98,359.5C 113.085,346.995 119.585,330.995 117.5,311.5C 116.522,311.977 115.689,312.643 115,313.5C 114.333,312.833 114.333,312.167 115,311.5C 118.777,307.862 123.277,305.695 128.5,305C 137.761,294.973 145.927,284.14 153,272.5C 155.332,269.178 156.498,265.511 156.5,261.5C 158.361,262.842 160.361,263.842 162.5,264.5C 161.279,265.028 160.113,265.695 159,266.5C 151.1,281.401 141.267,294.901 129.5,307C 126.883,307.822 124.216,308.322 121.5,308.5C 121.062,321.251 118.562,333.584 114,345.5C 108.643,351.855 102.977,357.855 97,363.5C 93.5959,367.503 92.9292,371.836 95,376.5C 101.108,383.783 108.942,386.617 118.5,385C 127.12,390.749 127.787,397.416 120.5,405C 114.33,407.576 107.997,408.076 101.5,406.5C 83.6721,408.023 66.0055,409.689 48.5,411.5C 45.4205,411.68 42.5871,411.014 40,409.5C 37.1971,404.152 36.1971,398.486 37,392.5C 39.422,388.656 42.0887,384.99 45,381.5C 45.3333,376.833 45.6667,372.167 46,367.5C 49.5235,365.284 51.3568,362.117 51.5,358C 50.2071,352.453 48.7071,346.953 47,341.5C 46.2024,332.787 46.5357,324.12 48,315.5C 53.6349,307.033 60.8016,300.033 69.5,294.5C 70.3325,282.848 70.8325,271.181 71,259.5C 76.999,249.492 84.499,240.659 93.5,233C 99.4366,229.783 104.937,225.949 110,221.5C 111.47,218.256 112.637,214.923 113.5,211.5C 114.833,211.5 116.167,211.5 117.5,211.5C 127.104,209.758 136.77,208.424 146.5,207.5 Z"/></g>
<g><path style="opacity:1" fill="#ced9eb" d="M 96.5,380.5 C 98.9639,382.57 101.631,384.404 104.5,386C 103.833,386.667 103.167,387.333 102.5,388C 105.566,387.413 108.732,386.913 112,386.5C 120.756,387.26 124.09,391.927 122,400.5C 116.659,405.311 110.493,406.645 103.5,404.5C 104.969,402.808 105.635,400.808 105.5,398.5C 104.612,390.869 100.279,387.869 92.5,389.5C 91.6236,389.369 90.9569,389.702 90.5,390.5C 93.0865,391.48 95.7531,391.813 98.5,391.5C 100.113,391.944 101.28,392.944 102,394.5C 103.761,402.913 100.261,406.913 91.5,406.5C 92.44,402.537 92.6067,398.537 92,394.5C 87.7368,390.007 82.9035,389.34 77.5,392.5C 80.6651,392.551 83.9984,392.718 87.5,393C 90.3939,395.909 91.2272,399.409 90,403.5C 86.3462,406.291 82.1795,407.625 77.5,407.5C 78.412,403.869 78.5787,400.203 78,396.5C 73.8354,390.833 69.0021,390.166 63.5,394.5C 63.8333,394.833 64.1667,395.167 64.5,395.5C 68.6423,392.593 72.4756,392.926 76,396.5C 76.8517,407.636 72.0183,411.136 61.5,407C 64.1217,403.202 64.1217,399.368 61.5,395.5C 57.1667,392.833 52.8333,392.833 48.5,395.5C 51.6651,395.551 54.9984,395.718 58.5,396C 63.2143,401.674 62.2143,406.007 55.5,409C 50.7959,409.648 46.1292,409.481 41.5,408.5C 39.7088,402.963 39.2088,397.296 40,391.5C 41.6971,388.98 43.5305,386.647 45.5,384.5C 62.0935,378.423 79.0935,377.09 96.5,380.5 Z"/></g>
<g><path style="opacity:1" fill="#6c7588" d="M 92.5,389.5 C 94.5,390.167 96.5,390.833 98.5,391.5C 95.7531,391.813 93.0865,391.48 90.5,390.5C 90.9569,389.702 91.6236,389.369 92.5,389.5 Z"/></g>
<g><path style="opacity:1" fill="#222835" d="M 111.5,304.5 C 112.239,304.369 112.906,304.536 113.5,305C 111.274,306.227 109.774,308.061 109,310.5C 108.87,314.951 108.204,319.284 107,323.5C 103.499,326.917 99.4993,329.584 95,331.5C 92.7473,330.623 90.5806,329.623 88.5,328.5C 88.3691,327.624 88.7025,326.957 89.5,326.5C 90.646,327.145 91.646,327.978 92.5,329C 97.6709,327.992 102.171,325.492 106,321.5C 106.333,317.5 106.667,313.5 107,309.5C 108.049,307.382 109.549,305.716 111.5,304.5 Z"/></g>
<g><path style="opacity:1" fill="#171e2c" d="M 77.5,326.5 C 77.5654,326.938 77.3988,327.272 77,327.5C 71.7896,323.411 69.623,318.078 70.5,311.5C 74.2014,305.431 77.368,299.097 80,292.5C 79.3871,299.076 77.0538,305.076 73,310.5C 71.4457,316.754 72.9457,322.088 77.5,326.5 Z"/></g>
</svg>
